<svg width="79" height="27" viewBox="0 0 79 27" fill="none" xmlns="http://www.w3.org/2000/svg">
<g clip-path="url(#clip0_401_138)">
<path d="M41.5499 7.14585C41.5499 8.03908 40.8403 8.81051 39.9336 8.81051C39.0269 8.81051 38.3174 8.07968 38.3174 7.14585C38.3174 6.21201 38.9875 5.48118 39.9336 5.48118C40.8797 5.56239 41.5499 6.29322 41.5499 7.14585ZM34.9666 10.4752C34.9666 10.6376 34.9666 10.8812 34.9666 10.8812C34.9666 10.8812 34.2176 9.86615 32.6013 9.86615C29.9207 9.86615 27.8313 11.9774 27.8313 14.8601C27.8313 17.7428 29.8812 19.8541 32.6013 19.8541C34.257 19.8541 34.9666 18.7985 34.9666 18.7985V19.2451C34.9666 19.4481 35.1242 19.6105 35.3214 19.6105H37.2924V10.1098C37.2924 10.1098 35.479 10.1098 35.3214 10.1098C35.1242 10.1098 34.9666 10.3128 34.9666 10.4752ZM34.9666 16.5654C34.6118 17.1338 33.8628 17.621 32.9955 17.621C31.4187 17.621 30.236 16.606 30.236 14.9007C30.236 13.1955 31.4581 12.1804 32.9955 12.1804C33.8628 12.1804 34.6512 12.6677 34.9666 13.2361V16.5654ZM38.7904 10.1098H41.1557V19.6105H38.7904V10.1098ZM73.9935 9.86615C72.3772 9.86615 71.6282 10.8812 71.6282 10.8812V5.56239H69.263V19.6511C69.263 19.6511 71.0763 19.6511 71.234 19.6511C71.4311 19.6511 71.5888 19.4887 71.5888 19.2857V18.8391C71.5888 18.8391 72.3378 19.8947 73.9541 19.8947C76.6347 19.8947 78.724 17.7834 78.724 14.9007C78.7635 11.9774 76.6741 9.86615 73.9935 9.86615ZM73.5993 17.5804C72.6926 17.5804 71.983 17.0932 71.6282 16.5248V13.1143C71.983 12.627 72.7715 12.0586 73.5993 12.0586C75.1761 12.0586 76.3588 13.0737 76.3588 14.7789C76.3588 16.4842 75.1761 17.5804 73.5993 17.5804ZM68.0409 14.0075V19.6917H65.6756V14.2917C65.6756 12.7083 65.2026 12.0992 63.8623 12.0992C63.1527 12.0992 62.4037 12.4646 61.9306 13.0331V19.6511H59.5654V10.1098H61.4182C61.6153 10.1098 61.7729 10.2722 61.7729 10.4752V10.8812C62.4431 10.1504 63.3892 9.86615 64.2959 9.86615C65.3209 9.86615 66.1881 10.1504 66.8583 10.7594C67.7255 11.4902 68.0409 12.3834 68.0409 14.0075ZM53.8493 9.86615C52.233 9.86615 51.484 10.8812 51.484 10.8812V5.56239H49.1188V19.6511C49.1188 19.6511 50.9321 19.6511 51.0898 19.6511C51.2869 19.6511 51.4446 19.4887 51.4446 19.2857V18.8391C51.4446 18.8391 52.1936 19.8947 53.8099 19.8947C56.4905 19.8947 58.5798 17.7834 58.5798 14.9007C58.6193 11.9774 56.5299 9.86615 53.8493 9.86615ZM53.4551 17.5804C52.5484 17.5804 51.8388 17.0932 51.484 16.5248V13.1143C51.8388 12.627 52.6272 12.0586 53.4551 12.0586C55.0319 12.0586 56.2146 13.0737 56.2146 14.7789C56.2146 16.4842 55.0319 17.5804 53.4551 17.5804ZM47.0689 9.86615C47.7784 9.86615 48.1332 9.98795 48.1332 9.98795V12.221C48.1332 12.221 46.1622 11.5308 44.9401 12.9925V19.6511H42.5748V10.1098C42.5748 10.1098 44.3882 10.1098 44.5459 10.1098C44.743 10.1098 44.9007 10.2722 44.9007 10.4752V10.8812C45.3737 10.3534 46.3593 9.86615 47.0689 9.86615ZM22.5883 18.7985C22.4701 18.5143 22.3518 18.1489 22.2335 17.9052C22.0364 17.4586 21.8393 17.012 21.6816 16.606L21.6422 16.5654C19.9471 12.7895 18.1337 8.93231 16.2021 5.11577L16.1232 4.95337C15.9261 4.58795 15.729 4.18194 15.5319 3.77592C15.2954 3.32931 15.0589 2.84209 14.6647 2.39547C13.8762 1.38043 12.733 0.812012 11.5504 0.812012C10.3283 0.812012 9.22454 1.38043 8.3967 2.31427C8.00249 2.80149 7.72654 3.2481 7.49001 3.73532C7.29291 4.14134 7.0958 4.54735 6.89869 4.91276L6.81985 5.07517C4.92764 8.85111 3.07484 12.7083 1.37973 16.5248L1.34031 16.5654C1.18263 16.9714 0.98552 17.418 0.788414 17.8646C0.670151 18.1489 0.551887 18.4331 0.433624 18.7579C0.118254 19.6917 -9.10461e-06 20.5849 0.157676 21.4782C0.433624 23.3864 1.65568 24.9699 3.35079 25.6601C3.98153 25.9443 4.65169 26.0661 5.32185 26.0661C5.51895 26.0661 5.75548 26.0255 5.95259 26.0255C6.78043 25.9443 7.60827 25.6601 8.3967 25.1729C9.42165 24.6045 10.3678 23.7519 11.4321 22.5338C12.4965 23.7519 13.482 24.5639 14.4676 25.1729C15.2954 25.6601 16.1232 25.9443 16.9117 26.0255C17.1088 26.0661 17.3453 26.0661 17.5424 26.0661C18.2126 26.0661 18.9221 25.9443 19.5135 25.6601C21.248 24.9699 22.4306 23.3458 22.7066 21.4782C22.9825 20.5849 22.9037 19.7323 22.5883 18.7985ZM11.511 20.0977C10.1707 18.3925 9.34281 16.7684 9.02744 15.388C8.90917 14.8195 8.86975 14.2917 8.9486 13.8451C8.98802 13.4391 9.1457 13.0737 9.34281 12.7895C9.81586 12.0992 10.6043 11.6932 11.511 11.6932C12.4177 11.6932 13.2455 12.0992 13.6791 12.7895C13.8762 13.0737 14.0339 13.4391 14.0733 13.8451C14.1522 14.2917 14.1128 14.8195 13.9945 15.388C13.6791 16.7278 12.8119 18.3519 11.511 20.0977ZM21.2874 21.2752C21.1297 22.5744 20.2625 23.7113 19.0404 24.2391C18.4491 24.4827 17.8184 24.5639 17.1876 24.4827C16.5569 24.4015 15.9656 24.1985 15.3348 23.8331C14.4676 23.3458 13.5609 22.5338 12.5359 21.397C14.1522 19.3669 15.1377 17.4586 15.4925 15.794C15.6502 15.0225 15.6896 14.2917 15.6108 13.6421C15.5319 12.9925 15.2954 12.424 14.9406 11.9368C14.1916 10.8 12.8907 10.1504 11.4715 10.1504C10.0524 10.1504 8.75149 10.8406 8.00249 11.9368C7.6477 12.424 7.45059 13.0331 7.33233 13.6421C7.25349 14.2917 7.25348 15.0225 7.45059 15.794C7.80538 17.4586 8.83033 19.3669 10.4072 21.397C9.38223 22.5744 8.47554 23.3458 7.60827 23.8331C6.97754 24.1985 6.3468 24.4015 5.75548 24.4827C5.08532 24.5639 4.45458 24.4421 3.90269 24.2391C2.68063 23.7519 1.85279 22.5744 1.65568 21.2752C1.57684 20.6255 1.61626 20.0165 1.89221 19.2857C1.97105 19.0421 2.08931 18.7985 2.20758 18.4737C2.36526 18.0677 2.56237 17.621 2.75947 17.215L2.79889 17.1744C4.494 13.3985 6.30738 9.54134 8.19959 5.806L8.27843 5.64359C8.47554 5.27818 8.67265 4.87216 8.86975 4.46615C9.06686 4.06013 9.30339 3.69472 9.53991 3.36991C10.0524 2.76088 10.762 2.43607 11.511 2.43607C12.26 2.43607 12.9696 2.76088 13.482 3.36991C13.758 3.69472 13.9551 4.06013 14.1522 4.46615C14.3493 4.83156 14.5464 5.23758 14.7435 5.64359L14.8223 5.806C16.6751 9.58194 18.4885 13.4391 20.1836 17.1744V17.215C20.3807 17.621 20.5384 18.0677 20.7355 18.4737C20.8538 18.7579 20.972 19.0421 21.0509 19.2857C21.3268 19.9759 21.4057 20.6255 21.2874 21.2752Z" fill="white"/>
</g>
<defs>
<clipPath id="clip0_401_138">
<rect width="79" height="27" fill="white"/>
</clipPath>
</defs>
</svg>
