<svg width="29" height="17" viewBox="0 0 29 17" fill="none" xmlns="http://www.w3.org/2000/svg">
<path d="M22.5994 9.38911H6.40066C5.8967 9.38911 5.50073 8.99799 5.50073 8.50022C5.50073 8.00244 5.8967 7.61133 6.40066 7.61133H22.5994C23.1034 7.61133 23.4993 8.00244 23.4993 8.50022C23.4993 8.99799 23.1034 9.38911 22.5994 9.38911Z" fill="white"/>
<path d="M18.0999 15.6113C17.9819 15.6127 17.8648 15.5897 17.7563 15.5438C17.6478 15.4979 17.5503 15.43 17.4699 15.3446C17.11 14.9891 17.11 14.438 17.4699 14.0824L23.1395 8.4824L17.4699 2.8824C17.11 2.52685 17.11 1.97574 17.4699 1.62018C17.8299 1.26463 18.3879 1.26463 18.7478 1.62018L25.0473 7.8424C25.4073 8.19796 25.4073 8.74907 25.0473 9.10463L18.7478 15.3268C18.5678 15.5046 18.3339 15.5935 18.1179 15.5935L18.0999 15.6113Z" fill="white"/>
</svg>
