<svg width="130" height="43" viewBox="0 0 130 43" fill="none" xmlns="http://www.w3.org/2000/svg">
<g clip-path="url(#clip0_401_411)">
<path d="M80.5344 31.0632C72.4257 34.5369 63.5684 36.2421 55.522 36.2421C43.6083 36.2421 32.0689 32.9579 22.7126 27.4632C21.9017 26.9579 21.278 27.8421 21.9641 28.4737C30.6342 36.3685 42.0489 41.1053 54.7111 41.1053C63.7555 41.1053 74.2969 38.2 81.5325 32.8316C82.78 31.8211 81.7819 30.4948 80.5344 31.0632Z" fill="#FF9900"/>
<path d="M75.981 27.9682C75.3572 28.4103 75.4196 29.0419 76.1681 28.9787C78.476 28.7261 83.7155 28.0945 84.6511 29.2945C85.5867 30.4945 83.5907 35.484 82.7175 37.6945C82.468 38.3893 83.0294 38.6419 83.5907 38.1366C87.458 34.8524 88.5184 27.905 87.7075 26.9577C86.959 25.884 80.0977 24.9998 75.981 27.9682Z" fill="#FF9900"/>
<path d="M90.2026 19.6316C87.9571 18.3685 85.3997 17.9895 82.9671 18.0527L89.5789 8.51584C90.2026 7.63163 90.5145 7.12637 90.5145 6.68426V4.2211C90.5145 3.779 90.2026 3.52637 89.766 3.52637H77.0414C76.6672 3.52637 76.3553 3.84216 76.3553 4.2211V7.06321C76.3553 7.50531 76.6672 7.75795 77.1038 7.75795H83.7156L76.1058 18.8106C75.6692 19.5053 75.6692 20.3264 75.6692 20.7685V23.6737C75.6692 24.1158 76.1058 24.5579 76.5424 24.3053C80.8463 21.9685 86.0235 22.2211 89.9531 24.3053C90.4521 24.5579 90.8888 24.0527 90.8888 23.6737V20.579C90.8264 20.3264 90.7016 19.8843 90.2026 19.6316Z" fill="#221F1F"/>
<path d="M26.1433 25.0632H30.0105C30.4472 25.0632 30.759 24.7475 30.759 24.3685V13.6948C30.759 11.358 30.6343 8.13693 33.4412 8.13693C36.1857 8.13693 35.8114 11.4211 35.8114 13.6948V24.3685C35.8114 24.7475 36.1233 25.0632 36.4976 25.0632H40.3648C40.8015 25.0632 41.1133 24.7475 41.1133 24.3685V13.6948C41.1133 12.558 41.051 10.8527 41.4876 9.8422C41.8618 8.83167 42.8598 8.20009 43.7955 8.20009C44.9182 8.20009 45.7915 8.57904 46.041 9.90536C46.2281 10.7264 46.1657 12.8106 46.1657 13.6948V24.3685C46.1657 24.7475 46.4776 25.0632 46.8519 25.0632H50.7191C51.1558 25.0632 51.4676 24.7475 51.4676 24.3685V11.6738C51.4676 9.52641 51.7171 7.06325 50.4696 5.35799C49.4092 3.8422 47.6004 3.14746 45.9786 3.14746C43.6707 3.14746 41.55 4.34746 40.6143 6.87378C39.554 4.34746 37.9946 3.14746 35.6243 3.14746C33.2541 3.14746 31.5076 4.34746 30.5095 6.87378H30.4472V4.22115C30.4472 3.8422 30.1353 3.58957 29.761 3.52641H26.1433C25.7067 3.52641 25.3948 3.8422 25.3948 4.22115V24.3685C25.4572 24.7475 25.769 25.0001 26.1433 25.0632Z" fill="#221F1F"/>
<path d="M101.43 3.14746C95.8164 3.14746 92.76 8.01062 92.76 14.2633C92.76 20.4527 95.8164 25.4422 101.43 25.4422C106.857 25.4422 110.287 20.579 110.287 14.4527C110.225 8.13693 107.169 3.14746 101.43 3.14746ZM101.43 21.3369C98.3738 21.3369 98.4362 16.0948 98.4362 13.6317C98.4362 11.1685 98.6233 7.25272 101.493 7.25272C102.74 7.25272 103.613 7.82115 104.05 9.21062C104.549 10.7896 104.611 12.8738 104.611 14.5159C104.549 17.1054 104.424 21.3369 101.43 21.3369Z" fill="#221F1F"/>
<path d="M123.511 3.14746C120.829 3.14746 119.332 4.47378 118.272 7.18957H118.147V4.15799C118.084 3.8422 117.773 3.58957 117.461 3.58957H113.905C113.531 3.58957 113.219 3.90536 113.157 4.22115V24.3054C113.157 24.6843 113.469 25.0001 113.843 25.0001H117.71C118.147 25.0001 118.459 24.6843 118.459 24.3054V13.5054C118.459 12.179 118.521 10.9159 119.082 9.71588C119.519 8.76851 120.392 8.13693 121.328 8.13693C124.01 8.13693 123.761 11.358 123.761 13.5685V24.4948C123.823 24.8106 124.072 25.1264 124.447 25.1264H128.314C128.688 25.1264 129 24.8738 129.062 24.4948V11.8633C129.062 9.90536 129.062 7.18957 128.064 5.61062C126.879 3.77904 125.195 3.14746 123.511 3.14746Z" fill="#221F1F"/>
<path d="M66.1882 11.4842C63.9427 11.7368 61.0111 11.9263 58.9527 12.8736C56.5201 13.9473 54.8359 16.0947 54.8359 19.2526C54.8359 23.2947 57.3933 25.3789 60.6368 25.3789C63.3813 25.3789 64.8784 24.7473 66.9991 22.5368C67.6852 23.5473 67.9347 24.0526 69.2446 25.1263C69.5565 25.2526 69.9307 25.2526 70.1802 25.0631C70.9288 24.3684 72.3634 23.1052 73.1119 22.4736C73.4238 22.221 73.3614 21.7789 73.1119 21.4631C72.4258 20.4526 71.6773 19.6947 71.6773 17.8631V11.7368C71.6773 9.14731 71.8644 6.81047 69.9931 4.97889C68.4961 3.52626 66.0635 3.021 64.1922 3.021C60.5121 3.021 56.3953 4.41047 55.5221 9.021C55.4597 9.52626 55.7716 9.77889 56.0834 9.84205L59.826 10.221C60.2002 10.221 60.4497 9.84205 60.5121 9.52626C60.824 7.94731 62.1338 7.18942 63.6308 7.18942C64.4417 7.18942 65.315 7.50521 65.814 8.19994C66.3754 9.021 66.313 10.0947 66.313 11.042L66.1882 11.4842ZM65.5021 19.6315C64.8784 20.7052 63.8804 21.3999 62.82 21.3999C61.323 21.3999 60.4497 20.2631 60.4497 18.5578C60.4497 15.2105 63.3813 14.642 66.1882 14.642V15.4631C66.1882 16.9789 66.2506 18.242 65.5021 19.6315Z" fill="#221F1F"/>
<path d="M22.4007 21.3366C21.7146 20.3261 20.9661 19.5682 20.9661 17.7366V11.6103C20.9661 9.02085 21.1532 6.684 19.2819 4.85243C17.7849 3.39979 15.3523 2.89453 13.481 2.89453C9.8009 2.89453 5.68414 4.284 4.81088 8.89453C4.74851 9.39979 5.06038 9.65243 5.37226 9.71558L9.11478 10.0945C9.48903 10.0945 9.73853 9.71558 9.8009 9.39979C10.1128 7.82085 11.4227 7.06295 12.9197 7.06295C13.7305 7.06295 14.6038 7.37874 15.1028 8.07348C15.6642 8.89453 15.5394 9.96821 15.5394 10.9156V11.4208C13.2939 11.6735 10.3623 11.863 8.3039 12.8103C5.87126 13.884 4.12476 16.0314 4.12476 19.2524C4.12476 23.2945 6.68214 25.3787 9.92565 25.3787C12.6702 25.3787 14.1672 24.7472 16.2879 22.5366C16.9741 23.5472 17.2236 24.0524 18.5334 25.1261C18.8453 25.2524 19.2196 25.2524 19.4691 25.063C20.2176 24.3682 21.6522 23.1051 22.4007 22.4735C22.7126 22.1577 22.6502 21.7156 22.4007 21.3366ZM14.7909 19.6314C14.1672 20.7051 13.2315 21.3998 12.1088 21.3998C10.6118 21.3998 9.73853 20.263 9.73853 18.5577C9.73853 15.2103 12.6702 14.6419 15.477 14.6419V15.463C15.5394 16.9787 15.6018 18.2419 14.7909 19.6314Z" fill="#221F1F"/>
</g>
<defs>
<clipPath id="clip0_401_411">
<rect width="125" height="42" fill="white" transform="translate(4 1)"/>
</clipPath>
</defs>
</svg>
