<svg width="79" height="27" viewBox="0 0 79 27" fill="none" xmlns="http://www.w3.org/2000/svg">
<path d="M11.8658 1.29919C5.32186 1.29919 0 6.7398 0 13.4796C0 20.2195 5.32186 25.7007 11.8658 25.7007C18.4097 25.7007 23.7315 20.2195 23.7315 13.4796C23.6921 6.7398 18.4097 1.29919 11.8658 1.29919ZM17.2665 18.8796C17.0694 19.2451 16.5963 19.3669 16.2415 19.1233C13.4426 17.3774 9.97355 16.9714 5.83433 17.9458C5.44012 18.027 5.04591 17.7834 4.96707 17.3774C4.88822 16.9714 5.12475 16.5654 5.51896 16.4842C10.0524 15.4285 13.9157 15.8751 17.0299 17.8646C17.3847 18.0676 17.503 18.5142 17.2665 18.8796ZM18.725 15.5503C18.4491 15.9969 17.8972 16.1593 17.4636 15.8751C14.2705 13.8451 9.42166 13.2766 5.67665 14.4541C5.20359 14.6165 4.69112 14.3323 4.53343 13.8045C4.37575 13.3172 4.6517 12.7894 5.16417 12.627C9.46108 11.2872 14.8224 11.9368 18.4885 14.2511C18.8433 14.5353 19.001 15.1037 18.725 15.5503ZM18.8433 12.0992C15.0195 9.74431 8.71208 9.5413 5.08533 10.6781C4.49401 10.8811 3.86327 10.5157 3.70559 9.90671C3.5479 9.33829 3.86327 8.68867 4.45459 8.52626C8.63323 7.22701 15.6108 7.47062 19.9865 10.1503C20.499 10.4751 20.6961 11.1654 20.3807 11.7338C20.0654 12.2616 19.3952 12.424 18.8433 12.0992ZM32.2465 12.5458C30.1966 12.0586 29.8418 11.6932 29.8418 10.9624C29.8418 10.2721 30.4726 9.78491 31.4187 9.78491C32.3253 9.78491 33.2715 10.1503 34.2176 10.8811C34.257 10.9218 34.2964 10.9218 34.3358 10.9218C34.3753 10.9218 34.4147 10.8811 34.4147 10.8811L35.4002 9.4195C35.4396 9.37889 35.4396 9.29769 35.3608 9.21649C34.2176 8.28265 32.9167 7.79544 31.4187 7.79544C29.2111 7.79544 27.6737 9.17589 27.6737 11.1248C27.6737 13.236 29.014 13.9669 31.3004 14.5353C33.2715 14.9819 33.5868 15.3879 33.5868 16.0781C33.5868 16.8496 32.9167 17.3368 31.8523 17.3368C30.6697 17.3368 29.6841 16.9308 28.5803 15.9563C28.5409 15.9157 28.5015 15.9157 28.5015 15.9157C28.4621 15.9157 28.4227 15.9563 28.4227 15.9563L27.3189 17.3368C27.2794 17.3774 27.2794 17.4992 27.3189 17.5398C28.5803 18.7172 30.1572 19.3263 31.8129 19.3263C34.1781 19.3263 35.7156 17.9864 35.7156 15.9157C35.755 14.1699 34.73 13.1954 32.2465 12.5458ZM41.1163 10.4751C40.0913 10.4751 39.2241 10.8811 38.5539 11.7338V10.7593C38.5539 10.6781 38.4751 10.6375 38.4356 10.6375H36.6223C36.5434 10.6375 36.504 10.7187 36.504 10.7593V21.5187C36.504 21.5999 36.5828 21.6405 36.6223 21.6405H38.4356C38.5145 21.6405 38.5539 21.5593 38.5539 21.5187V18.1488C39.2635 18.9608 40.0913 19.3669 41.1163 19.3669C43.0479 19.3669 44.9795 17.8646 44.9795 14.9413C44.9795 12.018 43.0479 10.4751 41.1163 10.4751ZM42.8508 14.9007C42.8508 16.3624 41.9835 17.418 40.6826 17.418C39.4212 17.418 38.4751 16.3218 38.4751 14.9007C38.4751 13.4796 39.4212 12.3834 40.6826 12.3834C41.9441 12.3834 42.8508 13.439 42.8508 14.9007ZM49.9466 10.4751C47.4631 10.4751 45.5314 12.424 45.5314 14.9413C45.5314 17.418 47.4631 19.3669 49.9072 19.3669C52.3907 19.3669 54.3224 17.418 54.3224 14.9413C54.3618 12.424 52.4301 10.4751 49.9466 10.4751ZM49.9466 17.418C48.6457 17.418 47.6602 16.3218 47.6602 14.9007C47.6602 13.439 48.6063 12.424 49.9466 12.424C51.2869 12.424 52.2725 13.5202 52.2725 14.9413C52.233 16.403 51.2869 17.418 49.9466 17.418ZM59.6048 10.6375H57.5943V8.52626C57.5943 8.44506 57.5155 8.40446 57.4761 8.40446H55.6627C55.5838 8.40446 55.5444 8.48566 55.5444 8.52626V10.6375H54.6771C54.5983 10.6375 54.5589 10.7187 54.5589 10.7593V12.3834C54.5589 12.4646 54.6377 12.5052 54.6771 12.5052H55.5444V16.6872C55.5444 18.3924 56.3723 19.2451 57.9885 19.2451C58.6587 19.2451 59.1712 19.1233 59.6836 18.7984C59.7231 18.7578 59.7625 18.7172 59.7625 18.6766V17.1338C59.7625 17.0932 59.7231 17.0526 59.6836 17.012C59.6442 16.9714 59.6048 16.9714 59.5654 17.012C59.2106 17.1744 58.8558 17.2962 58.501 17.2962C57.9097 17.2962 57.6337 17.012 57.6337 16.403V12.5052H59.6442C59.7231 12.5052 59.7625 12.424 59.7625 12.3834V10.7593C59.7625 10.7187 59.6836 10.6375 59.6048 10.6375ZM66.6218 10.6781V10.4345C66.6218 9.66311 66.8977 9.33829 67.5285 9.33829C67.9227 9.33829 68.1986 9.4195 68.5534 9.5413C68.5928 9.5413 68.6322 9.5413 68.6717 9.5413C68.7111 9.5007 68.7111 9.4601 68.7111 9.4195V7.83604C68.7111 7.79543 68.6717 7.71423 68.6322 7.71423C68.2775 7.59243 67.8044 7.47062 67.0948 7.47062C65.3997 7.47062 64.493 8.44506 64.493 10.3127V10.7187H63.6257C63.5469 10.7187 63.5075 10.7999 63.5075 10.8405V12.4646C63.5075 12.5458 63.5863 12.5864 63.6257 12.5864H64.493V19.0421C64.493 19.1233 64.5719 19.1639 64.6113 19.1639H66.4247C66.5035 19.1639 66.5429 19.0827 66.5429 19.0421V12.5458H68.238L70.8398 19.0015C70.5245 19.6917 70.2485 19.8135 69.8543 19.8135C69.5389 19.8135 69.1841 19.7323 68.8293 19.5293C68.7899 19.5293 68.7505 19.4887 68.7111 19.5293C68.6717 19.5293 68.6322 19.5699 68.6322 19.6105L68.0015 21.0315C67.9621 21.1127 68.0015 21.1939 68.0409 21.1939C68.6717 21.5593 69.263 21.7218 70.012 21.7218C71.3523 21.7218 72.1013 21.0721 72.7715 19.3263L75.9646 10.8811C75.9646 10.8405 75.9646 10.7999 75.9646 10.7593C75.9251 10.7187 75.8857 10.7187 75.8463 10.7187H74.1118C74.0724 10.7187 73.9935 10.7593 73.9935 10.7999L72.0225 16.5654L69.8937 10.7999C69.8543 10.7593 69.8149 10.7187 69.7755 10.7187L66.6218 10.6781ZM62.5614 10.6375H60.748C60.6692 10.6375 60.6297 10.7187 60.6297 10.7593V19.0015C60.6297 19.0827 60.7086 19.1233 60.748 19.1233H62.5614C62.6402 19.1233 62.6796 19.0421 62.6796 19.0015V10.7999C62.7191 10.7187 62.6402 10.6375 62.5614 10.6375ZM61.6547 6.9022C60.9451 6.9022 60.3538 7.51122 60.3538 8.24205C60.3538 8.97288 60.9451 9.5819 61.6547 9.5819C62.3643 9.5819 62.9556 8.97288 62.9556 8.24205C62.9556 7.51122 62.4037 6.9022 61.6547 6.9022ZM77.6991 13.3172C76.9895 13.3172 76.3982 12.7082 76.3982 11.9774C76.3982 11.2466 76.9501 10.6375 77.6991 10.6375C78.4481 10.6375 79 11.2466 79 11.9774C79 12.7082 78.4481 13.3172 77.6991 13.3172ZM77.6991 10.7593C77.0289 10.7593 76.5559 11.2872 76.5559 11.9774C76.5559 12.627 77.0684 13.1548 77.6991 13.1548C78.3693 13.1548 78.8423 12.627 78.8423 11.9368C78.8817 11.2872 78.3693 10.7593 77.6991 10.7593ZM78.0145 12.0992L78.3693 12.627H78.0539L77.7385 12.1398H77.4626V12.627H77.1866V11.2466H77.7779C78.0933 11.2466 78.2904 11.409 78.2904 11.6932C78.3298 11.8962 78.1722 12.0586 78.0145 12.0992ZM77.7779 11.4902H77.4232V11.9368H77.7779C77.9356 11.9368 78.0539 11.8556 78.0539 11.7338C78.0539 11.5308 77.9356 11.4902 77.7779 11.4902Z" fill="white"/>
</svg>
