<svg width="29" height="17" viewBox="0 0 29 17" fill="none" xmlns="http://www.w3.org/2000/svg">
<path d="M22.4993 9.38886H6.30056C5.7966 9.38886 5.40063 8.99775 5.40063 8.49997C5.40063 8.0022 5.7966 7.61108 6.30056 7.61108H22.4993C23.0033 7.61108 23.3992 8.0022 23.3992 8.49997C23.3992 8.99775 23.0033 9.38886 22.4993 9.38886Z" fill="black"/>
<path d="M17.9998 15.6112C17.8818 15.6126 17.7647 15.5896 17.6562 15.5437C17.5478 15.4977 17.4502 15.4299 17.3698 15.3445C17.0099 14.9889 17.0099 14.4378 17.3698 14.0823L23.0394 8.48228L17.3698 2.88228C17.0099 2.52673 17.0099 1.97562 17.3698 1.62006C17.7298 1.2645 18.2878 1.2645 18.6477 1.62006L24.9472 7.84228C25.3072 8.19784 25.3072 8.74895 24.9472 9.10451L18.6477 15.3267C18.4677 15.5045 18.2338 15.5934 18.0178 15.5934L17.9998 15.6112Z" fill="black"/>
</svg>
