<svg width="16" height="19" viewBox="0 0 16 19" fill="none" xmlns="http://www.w3.org/2000/svg">
<path d="M1.3335 2.83317V16.1665C1.3335 16.6085 1.50909 17.0325 1.82165 17.345C2.13421 17.6576 2.55814 17.8332 3.00016 17.8332H13.0002C13.4422 17.8332 13.8661 17.6576 14.1787 17.345C14.4912 17.0325 14.6668 16.6085 14.6668 16.1665V6.4515C14.6668 6.22947 14.6224 6.00968 14.5363 5.80504C14.4501 5.6004 14.3239 5.41504 14.1652 5.25984L10.4652 1.6415C10.1538 1.33705 9.73564 1.16656 9.30016 1.1665H3.00016C2.55814 1.1665 2.13421 1.3421 1.82165 1.65466C1.50909 1.96722 1.3335 2.39114 1.3335 2.83317Z" stroke="black" stroke-width="2" stroke-linecap="round" stroke-linejoin="round"/>
<path d="M9.66699 1.1665V4.49984C9.66699 4.94186 9.84259 5.36579 10.1551 5.67835C10.4677 5.99091 10.8916 6.1665 11.3337 6.1665H14.667" stroke="black" stroke-width="2" stroke-linejoin="round"/>
</svg>
