<svg width="42" height="42" viewBox="0 0 42 42" fill="none" xmlns="http://www.w3.org/2000/svg">
<rect x="41.5" y="41.5" width="41" height="41" rx="20.5" transform="rotate(180 41.5 41.5)" stroke="#727272"/>
<path d="M12.5005 20.1109L28.6992 20.1109C29.2032 20.1109 29.5991 20.502 29.5991 20.9998C29.5991 21.4976 29.2032 21.8887 28.6992 21.8887L12.5005 21.8887C11.9965 21.8887 11.6005 21.4976 11.6005 20.9998C11.6005 20.502 11.9965 20.1109 12.5005 20.1109Z" fill="#727272"/>
<path d="M17.0005 13.8887C17.1185 13.8873 17.2355 13.9103 17.344 13.9562C17.4525 14.0021 17.5501 14.07 17.6304 14.1554C17.9904 14.5109 17.9904 15.062 17.6304 15.4176L11.9609 21.0176L17.6304 26.6176C17.9904 26.9732 17.9904 27.5243 17.6304 27.8798C17.2704 28.2354 16.7125 28.2354 16.3525 27.8798L10.053 21.6576C9.69303 21.302 9.69303 20.7509 10.053 20.3954L16.3525 14.1732C16.5325 13.9954 16.7665 13.9065 16.9825 13.9065L17.0005 13.8887Z" fill="#727272"/>
</svg>
