<svg width="142" height="47" viewBox="0 0 142 47" fill="none" xmlns="http://www.w3.org/2000/svg">
<path d="M26.2513 7.13817C25.6884 5.30057 23.7184 4.3111 21.889 4.87651C20.0597 5.44193 19.0746 7.42087 19.6375 9.25847L28.5731 36.8931C29.2064 38.5893 31.0357 39.5788 32.7947 39.0134C34.624 38.4479 35.7498 36.5397 35.1869 34.7021C35.1166 34.7021 26.2513 7.13817 26.2513 7.13817Z" fill="#DFA22F"/>
<path d="M12.3905 11.6616C11.7572 9.82401 9.85752 8.83454 8.02818 9.39995C6.19883 9.96536 5.2138 11.9443 5.77668 13.7819L14.7123 41.4165C15.3455 43.1127 17.1749 44.1022 18.9339 43.5368C20.7632 42.9714 21.889 41.0631 21.3261 39.2255C21.2557 39.2255 12.3905 11.6616 12.3905 11.6616Z" fill="#3CB187"/>
<path d="M37.5088 29.9669C39.3381 29.4015 40.3231 27.4225 39.7603 25.5849C39.1974 23.7474 37.2273 22.7579 35.398 23.3233L7.81715 32.3699C6.12852 33.006 5.14349 34.8436 5.70637 36.6105C6.26924 38.4481 8.16894 39.5789 9.99828 39.0135C10.0686 38.9428 37.5088 29.9669 37.5088 29.9669Z" fill="#CE1E5B"/>
<path d="M13.5869 37.8119C15.3458 37.2465 17.6677 36.469 20.1303 35.6916C19.5674 33.9247 18.7934 31.5923 18.0195 29.1187L11.4761 31.239L13.5869 37.8119Z" fill="#392538"/>
<path d="M27.4477 33.2884C29.9103 32.511 32.2321 31.7336 33.9911 31.1681C33.4282 29.4012 32.6543 27.0689 31.8803 24.5952L25.3369 26.7155L27.4477 33.2884Z" fill="#BB242A"/>
<path d="M33.0058 16.0436C34.8352 15.4781 35.8202 13.4992 35.2573 11.6616C34.6945 9.82401 32.7244 8.83454 30.8951 9.39995L3.31422 18.4466C1.6256 19.0827 0.640565 20.9203 1.20344 22.6872C1.76631 24.5248 3.66601 25.6556 5.49536 25.0902C5.56571 25.0195 33.0058 16.0436 33.0058 16.0436Z" fill="#72C5CD"/>
<path d="M9.08343 23.8885C10.8424 23.3231 13.1643 22.5457 15.6268 21.7682C14.8529 19.2946 14.0789 16.9622 13.5161 15.1953L6.97266 17.3156L9.08343 23.8885Z" fill="#238C73"/>
<path d="M22.9443 19.3651C25.4068 18.5877 27.7287 17.8102 29.4877 17.2448C28.7137 14.7711 27.9398 12.4388 27.3769 10.6719L20.8335 12.7922L22.9443 19.3651Z" fill="#62803A"/>
<path d="M65.371 14.3472C66.5671 14.9127 66.7078 15.266 65.7228 17.1036C64.7377 18.9412 64.5267 19.0826 63.3306 18.5878C61.853 17.9518 59.8829 17.457 58.6868 17.457C56.6464 17.457 55.3096 18.1638 55.3096 19.2946C55.3096 22.9698 66.9892 20.9909 66.9892 28.836C66.9892 32.7939 63.612 35.4089 58.6165 35.4089C55.9428 35.4089 52.7063 34.4901 50.4548 33.3593C49.3291 32.7939 49.2587 32.4405 50.2437 30.6029C51.088 28.9773 51.3695 28.7653 52.5656 29.26C54.4653 30.1081 56.9279 30.7442 58.5461 30.7442C60.3755 30.7442 61.6419 29.9668 61.6419 28.9066C61.6419 25.3728 49.7512 27.069 49.7512 19.436C49.7512 15.4074 53.0581 12.7217 58.124 12.7217C60.3755 12.7217 63.3305 13.4284 65.371 14.3472Z" fill="#373D40"/>
<path d="M74.7994 5.08858V34.2074C74.7994 34.6314 74.3069 35.1262 73.6737 35.1262H70.6482C70.015 35.1262 69.5225 34.6314 69.5225 34.2074V5.08858C69.5225 3.67504 69.9446 3.53369 72.1961 3.53369C74.6587 3.53369 74.7994 3.67504 74.7994 5.08858Z" fill="#373D40"/>
<path d="M82.3979 28.7651C82.3979 30.2493 83.6644 31.2388 85.5641 31.2388C87.8859 31.2388 89.9263 30.1079 91.1928 28.2703V26.2914C89.9967 25.7967 88.5192 25.5846 87.1823 25.5846C84.2976 25.5846 82.3979 26.9275 82.3979 28.7651ZM96.4698 21.4854V34.0658C96.4698 34.7019 95.9772 35.1967 95.344 35.1967H92.3186C91.615 35.1967 91.1224 34.7019 91.1928 33.9952L91.2632 32.6523C89.6449 34.4899 87.2527 35.4087 84.9308 35.4087C80.3575 35.4087 77.332 32.7936 77.332 28.8358C77.332 24.6658 80.7796 21.8388 85.9862 21.7681C87.9563 21.7681 89.7153 22.1215 91.1928 22.7576V21.344C91.1928 19.0117 89.3635 17.6688 86.338 17.6688C84.9308 17.6688 83.1015 18.2342 81.6943 19.0824C80.6389 19.7185 80.3575 19.6478 79.1614 17.8809C78.0356 16.1139 78.0356 15.7606 79.1614 15.0538C81.2722 13.7109 84.1569 12.7921 86.8305 12.7921C92.7407 12.7215 96.4698 15.9726 96.4698 21.4854Z" fill="#373D40"/>
<path d="M117.156 14.4179C118.281 15.054 118.281 15.4074 117.085 17.3157C115.96 19.0826 115.748 19.2239 114.552 18.5878C113.638 18.0931 112.16 17.669 110.894 17.669C107.094 17.669 104.491 20.2134 104.491 24.03C104.491 27.9878 107.024 30.6736 110.894 30.6736C112.23 30.6736 113.849 30.1788 114.974 29.5427C116.1 28.9066 116.311 28.9773 117.507 30.6736C118.563 32.2991 118.563 32.6525 117.578 33.2886C115.889 34.4901 113.145 35.4089 110.823 35.4089C103.717 35.4089 99.0029 30.8856 99.0029 24.03C99.0029 17.245 103.717 12.7217 110.894 12.7217C113.075 12.7217 115.608 13.4991 117.156 14.4179Z" fill="#373D40"/>
<path d="M140.304 32.3698C141.219 33.5006 140.867 33.9247 138.615 34.7021C136.364 35.5502 136.082 35.4796 135.238 34.4194L128.906 25.9382L126.091 28.6946V34.2074C126.091 34.6314 125.599 35.1262 124.966 35.1262H121.94C121.307 35.1262 120.814 34.6314 120.814 34.2074V5.08858C120.814 3.67504 121.237 3.53369 123.488 3.53369C126.021 3.53369 126.162 3.74572 126.162 5.08858V21.6976L134.816 13.3578C135.801 12.439 136.293 12.5096 137.982 13.6405C139.882 14.842 140.023 15.1953 139.108 16.1141L132.635 22.4044L140.304 32.3698Z" fill="#373D40"/>
</svg>
