<svg width="130" height="45" viewBox="0 0 130 45" fill="none" xmlns="http://www.w3.org/2000/svg">
<path d="M19.5259 2.80127C8.75749 2.80127 0 11.5854 0 22.4672C0 33.349 8.75749 42.1987 19.5259 42.1987C30.2944 42.1987 39.0519 33.349 39.0519 22.4672C38.987 11.5854 30.2944 2.80127 19.5259 2.80127ZM28.4132 31.1858C28.0888 31.7757 27.3104 31.9724 26.7265 31.5791C22.1208 28.7603 16.4122 28.1048 9.6008 29.678C8.9521 29.8091 8.30339 29.4158 8.17365 28.7603C8.04391 28.1048 8.43313 27.4492 9.08184 27.3181C16.5419 25.6137 22.8992 26.3348 28.024 29.5469C28.6078 29.8747 28.8024 30.5958 28.4132 31.1858ZM30.8134 25.8104C30.3593 26.5315 29.4511 26.7937 28.7375 26.3348C23.483 23.0572 15.504 22.1394 9.34132 24.0405C8.56287 24.3027 7.71956 23.8438 7.46008 22.9916C7.2006 22.205 7.65469 21.3528 8.498 21.0906C15.5689 18.9273 24.3912 19.9762 30.4242 23.7127C31.008 24.1716 31.2675 25.0893 30.8134 25.8104ZM31.008 20.2384C24.7156 16.4363 14.3363 16.1085 8.36826 17.944C7.39521 18.2718 6.35729 17.6818 6.0978 16.6985C5.83832 15.7808 6.35729 14.7319 7.33034 14.4697C14.2066 12.372 25.6886 12.7653 32.8892 17.0918C33.7325 17.6163 34.0569 18.7307 33.5379 19.6484C33.019 20.5006 31.9162 20.7628 31.008 20.2384ZM53.0639 20.9595C49.6906 20.1728 49.1068 19.5829 49.1068 18.4029C49.1068 17.2885 50.1447 16.5019 51.7016 16.5019C53.1936 16.5019 54.7505 17.0918 56.3074 18.2718C56.3723 18.3374 56.4371 18.3374 56.502 18.3374C56.5669 18.3374 56.6317 18.2718 56.6317 18.2718L58.2535 15.9119C58.3184 15.8463 58.3184 15.7152 58.1886 15.5841C56.3074 14.0764 54.1667 13.2898 51.7016 13.2898C48.0689 13.2898 45.5389 15.5186 45.5389 18.6651C45.5389 22.0739 47.7445 23.2538 51.507 24.1716C54.7505 24.8927 55.2695 25.5482 55.2695 26.6626C55.2695 27.9081 54.1667 28.6947 52.4152 28.6947C50.4691 28.6947 48.8473 28.0392 47.0309 26.4659C46.9661 26.4004 46.9012 26.4004 46.9012 26.4004C46.8363 26.4004 46.7715 26.4659 46.7715 26.4659L44.9551 28.6947C44.8902 28.7603 44.8902 28.957 44.9551 29.0225C47.0309 30.9236 49.6257 31.9068 52.3503 31.9068C56.2425 31.9068 58.7725 29.7436 58.7725 26.4004C58.8373 23.5816 57.1507 22.0083 53.0639 20.9595ZM67.6597 17.6163C65.9731 17.6163 64.5459 18.2718 63.4431 19.6484V18.0751C63.4431 17.944 63.3134 17.8785 63.2485 17.8785H60.2645C60.1347 17.8785 60.0699 18.0096 60.0699 18.0751V35.4467C60.0699 35.5778 60.1996 35.6434 60.2645 35.6434H63.2485C63.3782 35.6434 63.4431 35.5123 63.4431 35.4467V30.0058C64.6108 31.3169 65.9731 31.9724 67.6597 31.9724C70.8383 31.9724 74.017 29.5469 74.017 24.8271C74.017 20.1073 70.8383 17.6163 67.6597 17.6163ZM70.514 24.7616C70.514 27.1215 69.0868 28.8259 66.9461 28.8259C64.8703 28.8259 63.3134 27.0559 63.3134 24.7616C63.3134 22.4672 64.8703 20.6973 66.9461 20.6973C69.022 20.6973 70.514 22.4016 70.514 24.7616ZM82.1906 17.6163C78.1038 17.6163 74.9252 20.7628 74.9252 24.8271C74.9252 28.8259 78.1038 31.9724 82.1257 31.9724C86.2126 31.9724 89.3912 28.8259 89.3912 24.8271C89.4561 20.7628 86.2775 17.6163 82.1906 17.6163ZM82.1906 28.8259C80.0499 28.8259 78.4281 27.0559 78.4281 24.7616C78.4281 22.4016 79.985 20.7628 82.1906 20.7628C84.3962 20.7628 86.018 22.5328 86.018 24.8271C85.9531 27.187 84.3962 28.8259 82.1906 28.8259ZM98.0838 17.8785H94.7755V14.4697C94.7755 14.3386 94.6457 14.2731 94.5808 14.2731H91.5968C91.4671 14.2731 91.4022 14.4042 91.4022 14.4697V17.8785H89.9751C89.8453 17.8785 89.7804 18.0096 89.7804 18.0751V20.6973C89.7804 20.8284 89.9102 20.8939 89.9751 20.8939H91.4022V27.6459C91.4022 30.3991 92.7645 31.7757 95.4242 31.7757C96.527 31.7757 97.3703 31.5791 98.2136 31.0547C98.2784 30.9891 98.3433 30.9236 98.3433 30.858V28.367C98.3433 28.3014 98.2784 28.2359 98.2136 28.1703C98.1487 28.1048 98.0838 28.1048 98.019 28.1703C97.4351 28.4325 96.8513 28.6292 96.2675 28.6292C95.2944 28.6292 94.8403 28.1703 94.8403 27.187V20.8939H98.1487C98.2785 20.8939 98.3433 20.7628 98.3433 20.6973V18.0751C98.3433 18.0096 98.2136 17.8785 98.0838 17.8785ZM109.631 17.944V17.5507C109.631 16.3052 110.085 15.7808 111.123 15.7808C111.771 15.7808 112.226 15.9119 112.809 16.1085C112.874 16.1085 112.939 16.1085 113.004 16.1085C113.069 16.043 113.069 15.9774 113.069 15.9119V13.3553C113.069 13.2898 113.004 13.1587 112.939 13.1587C112.355 12.962 111.577 12.7653 110.409 12.7653C107.62 12.7653 106.128 14.3386 106.128 17.3541V18.0096H104.701C104.571 18.0096 104.506 18.1407 104.506 18.2062V20.8284C104.506 20.9595 104.636 21.025 104.701 21.025H106.128V31.448C106.128 31.5791 106.257 31.6446 106.322 31.6446H109.306C109.436 31.6446 109.501 31.5135 109.501 31.448V20.9595H112.29L116.572 31.3824C116.053 32.4968 115.599 32.6935 114.95 32.6935C114.431 32.6935 113.847 32.5624 113.263 32.2346C113.199 32.2346 113.134 32.1691 113.069 32.2346C113.004 32.2346 112.939 32.3002 112.939 32.3657L111.901 34.6601C111.836 34.7912 111.901 34.9223 111.966 34.9223C113.004 35.5123 113.977 35.7745 115.21 35.7745C117.415 35.7745 118.648 34.7256 119.751 31.9068L125.005 18.2718C125.005 18.2062 125.005 18.1407 125.005 18.0751C124.94 18.0096 124.875 18.0096 124.81 18.0096H121.956C121.891 18.0096 121.761 18.0751 121.761 18.1407L118.518 27.4492L115.015 18.1407C114.95 18.0751 114.885 18.0096 114.82 18.0096L109.631 17.944ZM102.949 17.8785H99.9651C99.8353 17.8785 99.7705 18.0096 99.7705 18.0751V31.3824C99.7705 31.5135 99.9002 31.5791 99.9651 31.5791H102.949C103.079 31.5791 103.144 31.448 103.144 31.3824V18.1407C103.209 18.0096 103.079 17.8785 102.949 17.8785ZM101.457 11.8476C100.289 11.8476 99.3164 12.8309 99.3164 14.0108C99.3164 15.1908 100.289 16.1741 101.457 16.1741C102.625 16.1741 103.598 15.1908 103.598 14.0108C103.598 12.8309 102.69 11.8476 101.457 11.8476ZM127.859 22.205C126.692 22.205 125.719 21.2217 125.719 20.0417C125.719 18.8618 126.627 17.8785 127.859 17.8785C129.092 17.8785 130 18.8618 130 20.0417C130 21.2217 129.092 22.205 127.859 22.205ZM127.859 18.0751C126.756 18.0751 125.978 18.9273 125.978 20.0417C125.978 21.0906 126.821 21.9428 127.859 21.9428C128.962 21.9428 129.741 21.0906 129.741 19.9762C129.805 18.9273 128.962 18.0751 127.859 18.0751ZM128.378 20.2384L128.962 21.0906H128.443L127.924 20.3039H127.47V21.0906H127.016V18.8618H127.989C128.508 18.8618 128.832 19.124 128.832 19.5829C128.897 19.9106 128.638 20.1728 128.378 20.2384ZM127.989 19.2551H127.405V19.9762H127.989C128.249 19.9762 128.443 19.8451 128.443 19.6484C128.443 19.3207 128.249 19.2551 127.989 19.2551Z" fill="#1ED760"/>
</svg>
