<svg width="395" height="472" viewBox="0 0 395 472" fill="none" xmlns="http://www.w3.org/2000/svg">
<path d="M0 11C0 4.92486 4.92487 0 11 0H384C390.075 0 395 4.92487 395 11V392C395 436.183 359.183 472 315 472H11C4.92488 472 0 467.075 0 461V11Z" fill="white"/>
<path d="M42.928 38.96V50H41.184V44.576C41.184 43.312 41.184 41.792 41.216 40.624C40.896 41.792 40.432 43.312 40.016 44.56L38.24 50H36.208L34.416 44.544C34.016 43.312 33.552 41.808 33.248 40.64C33.28 41.824 33.28 43.312 33.28 44.576V50H31.52V38.96H34.352L37.264 48.432L40.176 38.96H42.928ZM50.0781 50L49.9181 48.768L49.4861 49.68C48.9101 50.08 48.1741 50.224 47.3741 50.224C45.8701 50.224 44.6381 49.36 44.6381 47.776C44.6381 45.888 46.1421 44.864 49.3581 44.864H49.9021V44.656C49.9021 44.336 49.9021 44.048 49.8701 43.728C49.8221 43.04 49.3901 42.56 48.3821 42.56C47.3581 42.56 46.8301 43.136 46.7341 44.192H44.9741C45.0861 42.336 46.4781 41.28 48.4141 41.28C50.6061 41.28 51.4701 42.208 51.6141 43.648C51.6461 44 51.6621 44.448 51.6621 44.848V47.84C51.6621 48.48 51.6941 49.056 51.8221 50H50.0781ZM48.0141 48.944C49.1181 48.944 49.9021 48.192 49.9021 46.816V46.032C47.8381 45.872 46.4941 46.336 46.4941 47.632C46.4941 48.528 47.0861 48.944 48.0141 48.944ZM61.4049 43.712C61.4369 44.144 61.4529 44.528 61.4529 45.216V50H59.6929V45.408C59.6929 45.008 59.6929 44.64 59.6609 44.208C59.5809 43.248 59.0689 42.576 57.8689 42.576C56.6529 42.576 55.6609 43.536 55.6609 46.192V50H53.9009V41.504H55.6609V42.912L56.2369 41.936C56.9089 41.424 57.5329 41.28 58.3809 41.28C60.2049 41.28 61.2449 42.224 61.4049 43.712ZM68.5 50L68.34 48.768L67.908 49.68C67.332 50.08 66.596 50.224 65.796 50.224C64.292 50.224 63.06 49.36 63.06 47.776C63.06 45.888 64.564 44.864 67.78 44.864H68.324V44.656C68.324 44.336 68.324 44.048 68.292 43.728C68.244 43.04 67.812 42.56 66.804 42.56C65.78 42.56 65.252 43.136 65.156 44.192H63.396C63.508 42.336 64.9 41.28 66.836 41.28C69.028 41.28 69.892 42.208 70.036 43.648C70.068 44 70.084 44.448 70.084 44.848V47.84C70.084 48.48 70.116 49.056 70.244 50H68.5ZM66.436 48.944C67.54 48.944 68.324 48.192 68.324 46.816V46.032C66.26 45.872 64.916 46.336 64.916 47.632C64.916 48.528 65.508 48.944 66.436 48.944ZM80.1308 41.504V47.888C80.1308 48.416 80.1308 49.072 80.1148 49.536C80.0188 52.112 78.4188 53.408 75.8588 53.408C73.4108 53.408 72.1148 52.384 71.9388 50.56L71.9228 50.4H73.6508L73.6668 50.544C73.7788 51.456 74.5628 52.08 75.8748 52.08C77.4108 52.08 78.2908 51.248 78.3548 49.728C78.3708 49.36 78.3708 49.056 78.3708 48.752V48.576L77.7308 49.504C77.2508 49.888 76.4188 50.144 75.5548 50.144C73.1068 50.144 71.6828 48.352 71.6828 45.856C71.6828 42.752 73.6028 41.28 75.7948 41.28C76.4988 41.28 77.3788 41.472 77.8108 41.808L78.3708 42.656V41.504H80.1308ZM75.9068 48.864C77.2348 48.864 78.3708 48.032 78.3708 45.76V45.392C78.3708 43.328 77.1228 42.56 75.9868 42.56C74.5948 42.56 73.5388 43.584 73.5388 45.696C73.5388 47.536 74.3868 48.864 75.9068 48.864ZM89.6973 45.536C89.6973 45.696 89.6973 45.936 89.6653 46.24H83.5693C83.7133 48.272 84.6413 48.944 85.7933 48.944C86.8173 48.944 87.6173 48.32 87.7933 47.248H89.5693C89.2013 49.264 87.5853 50.224 85.7293 50.224C83.4573 50.224 81.7453 48.784 81.7453 45.776C81.7453 43.088 83.4573 41.28 85.9053 41.28C88.3693 41.28 89.6973 43.136 89.6973 45.536ZM85.8413 42.56C84.6413 42.56 83.7773 43.376 83.5853 45.008H87.8893C87.7613 43.44 87.0733 42.56 85.8413 42.56ZM98.1385 41.28C100.283 41.28 101.642 42.576 101.851 44.448H100.075C99.8185 43.152 99.1305 42.56 98.0905 42.56C96.8585 42.56 95.8825 43.536 95.8825 45.664C95.8825 47.968 96.8425 48.944 98.0265 48.944C99.0345 48.944 99.7545 48.336 100.011 47.184H101.803C101.403 49.216 99.9305 50.224 97.9305 50.224C95.7065 50.224 94.0265 48.816 94.0265 45.792C94.0265 42.896 95.9145 41.28 98.1385 41.28ZM108.266 50L108.106 48.768L107.674 49.68C107.098 50.08 106.362 50.224 105.562 50.224C104.058 50.224 102.826 49.36 102.826 47.776C102.826 45.888 104.33 44.864 107.546 44.864H108.09V44.656C108.09 44.336 108.09 44.048 108.058 43.728C108.01 43.04 107.578 42.56 106.57 42.56C105.546 42.56 105.018 43.136 104.922 44.192H103.162C103.274 42.336 104.666 41.28 106.602 41.28C108.794 41.28 109.658 42.208 109.802 43.648C109.834 44 109.85 44.448 109.85 44.848V47.84C109.85 48.48 109.882 49.056 110.01 50H108.266ZM106.202 48.944C107.306 48.944 108.09 48.192 108.09 46.816V46.032C106.026 45.872 104.682 46.336 104.682 47.632C104.682 48.528 105.274 48.944 106.202 48.944ZM115.88 41.296C116.12 41.296 116.296 41.328 116.472 41.392V42.768C114.856 42.656 113.848 43.488 113.848 45.584V50H112.088V41.504H113.848V42.944L114.568 41.776C114.952 41.472 115.448 41.296 115.88 41.296ZM125.396 38.24V50H123.636V48.656L122.996 49.584C122.516 49.968 121.636 50.224 120.772 50.224C118.34 50.224 116.948 48.384 116.948 45.888C116.948 42.784 118.868 41.28 121.06 41.28C121.764 41.28 122.644 41.472 123.076 41.808L123.636 42.656V38.24H125.396ZM121.172 48.944C122.5 48.944 123.636 48.112 123.636 45.84V45.392C123.636 43.328 122.388 42.56 121.252 42.56C119.86 42.56 118.804 43.632 118.804 45.744C118.804 47.584 119.652 48.944 121.172 48.944ZM130.387 41.28C132.339 41.28 133.427 42.384 133.619 43.936H131.827C131.651 43.04 131.123 42.512 130.259 42.512C129.427 42.512 129.027 42.976 129.027 43.616C129.027 44.384 129.651 44.704 130.915 45.04C132.771 45.52 133.747 46.256 133.747 47.76C133.747 49.408 132.291 50.224 130.435 50.224C128.547 50.224 127.155 49.376 126.915 47.456H128.691C128.899 48.544 129.619 48.976 130.499 48.976C131.315 48.976 131.971 48.624 131.971 47.888C131.971 47.152 131.395 46.752 129.955 46.368C128.403 45.968 127.251 45.312 127.251 43.824C127.251 42.24 128.499 41.28 130.387 41.28Z" fill="black"/>
<rect x="283.5" y="31.5" width="81" height="29" rx="5.5" fill="white"/>
<rect x="283.5" y="31.5" width="81" height="29" rx="5.5" stroke="#B7C2D0"/>
<path d="M304.52 47.264H301.58L300.68 50H299.276L302.252 41.72H303.956L306.848 50H305.42L304.52 47.264ZM301.928 46.22H304.172L303.08 42.812L301.928 46.22ZM313.524 41.18V50H312.204V48.992L311.724 49.688C311.364 49.976 310.704 50.168 310.056 50.168C308.232 50.168 307.188 48.788 307.188 46.916C307.188 44.588 308.628 43.46 310.272 43.46C310.8 43.46 311.46 43.604 311.784 43.856L312.204 44.492V41.18H313.524ZM310.356 49.208C311.352 49.208 312.204 48.584 312.204 46.88V46.544C312.204 44.996 311.268 44.42 310.416 44.42C309.372 44.42 308.58 45.224 308.58 46.808C308.58 48.188 309.216 49.208 310.356 49.208ZM321.071 41.18V50H319.751V48.992L319.271 49.688C318.911 49.976 318.251 50.168 317.603 50.168C315.779 50.168 314.735 48.788 314.735 46.916C314.735 44.588 316.175 43.46 317.819 43.46C318.347 43.46 319.007 43.604 319.331 43.856L319.751 44.492V41.18H321.071ZM317.903 49.208C318.899 49.208 319.751 48.584 319.751 46.88V46.544C319.751 44.996 318.815 44.42 317.963 44.42C316.919 44.42 316.127 45.224 316.127 46.808C316.127 48.188 316.763 49.208 317.903 49.208ZM330.862 45.284C330.886 45.608 330.898 45.896 330.898 46.412V50H329.578V46.556C329.578 46.256 329.578 45.98 329.554 45.656C329.494 44.936 329.11 44.432 328.21 44.432C327.298 44.432 326.554 45.152 326.554 47.144V50H325.234V43.628H326.554V44.684L326.986 43.952C327.49 43.568 327.958 43.46 328.594 43.46C329.962 43.46 330.742 44.168 330.862 45.284ZM337.996 46.652C337.996 46.772 337.996 46.952 337.972 47.18H333.4C333.508 48.704 334.204 49.208 335.068 49.208C335.836 49.208 336.436 48.74 336.568 47.936H337.9C337.624 49.448 336.412 50.168 335.02 50.168C333.316 50.168 332.032 49.088 332.032 46.832C332.032 44.816 333.316 43.46 335.152 43.46C337 43.46 337.996 44.852 337.996 46.652ZM335.104 44.42C334.204 44.42 333.556 45.032 333.412 46.256H336.64C336.544 45.08 336.028 44.42 335.104 44.42ZM348.058 43.628L346.03 50H344.518L343.258 44.852L341.986 50H340.462L338.434 43.628H339.922L341.23 48.824L342.466 43.64H344.074L345.346 48.836L346.654 43.628H348.058Z" fill="black"/>
<rect x="21" y="77" width="344" height="194" rx="9" fill="#1C1247"/>
<g clip-path="url(#clip0_401_150)">
<path d="M59 123C64.5228 123 69 118.523 69 113C69 107.477 64.5228 103 59 103C53.4772 103 49 107.477 49 113C49 118.523 53.4772 123 59 123Z" fill="#F93232"/>
<path d="M71 103C68.754 103 66.688 103.75 65.02 105H65V105.014C64.604 105.312 64.24 105.648 63.893 106H66.107C66.415 106.313 66.699 106.648 66.962 107H63.03C62.788 107.319 62.566 107.652 62.363 108H67.627C67.815 108.324 67.992 108.654 68.145 109H61.854C61.711 109.325 61.585 109.658 61.477 110H68.521C68.625 110.326 68.707 110.661 68.779 111H61.216C61.149 111.328 61.093 111.66 61.059 112H68.94C68.979 112.328 69 112.661 69 113H61C61 113.339 61.027 113.67 61.06 114H68.942C68.904 114.339 68.849 114.672 68.78 115H61.217C61.286 115.341 61.375 115.673 61.478 116H68.522C68.414 116.342 68.288 116.675 68.145 117H61.854C62.005 117.344 62.175 117.678 62.363 118H67.627C67.425 118.348 67.2 118.681 66.958 119H63.03C63.296 119.352 63.583 119.687 63.892 120H66.107C65.759 120.353 65.396 120.688 65 120.986C66.672 122.245 68.745 123 71 123C76.523 123 81 118.522 81 113C81 107.478 76.523 103 71 103Z" fill="#FED049"/>
</g>
<path d="M52.032 153.368C53.472 153.368 54.224 154.168 54.336 155.256L54.344 155.336H53.472L53.456 155.256C53.304 154.512 52.848 154.04 52.016 154.04C50.992 154.04 50.344 154.92 50.344 156.224C50.344 157.592 51 158.44 51.976 158.44C52.808 158.44 53.264 157.952 53.416 157.208L53.432 157.128H54.304L54.296 157.208C54.184 158.288 53.376 159.112 51.936 159.112C50.36 159.112 49.392 157.944 49.392 156.264C49.392 154.528 50.48 153.368 52.032 153.368ZM58.1722 157.176H56.2122L55.6122 159H54.6762L56.6602 153.48H57.7962L59.7242 159H58.7722L58.1722 157.176ZM56.4442 156.48H57.9402L57.2122 154.208L56.4442 156.48ZM64.3022 157.576C64.3662 158.272 64.4622 158.696 64.6862 159H63.7182C63.5742 158.64 63.5022 158.296 63.4382 157.688C63.3662 157.104 63.1502 156.736 62.6462 156.704C62.5102 156.696 62.3742 156.696 62.2382 156.696H61.3822V159H60.5022V153.48H62.4062C62.7022 153.48 62.9022 153.48 63.1662 153.512C63.9662 153.616 64.5662 154.04 64.5662 154.984C64.5662 155.704 64.1262 156.128 63.5422 156.304C64.0382 156.52 64.2462 157 64.3022 157.576ZM61.3822 156.016H62.3022C62.5262 156.016 62.6622 156.016 62.7982 156C63.2782 155.952 63.6382 155.68 63.6382 155.096C63.6382 154.512 63.3422 154.272 62.8702 154.208C62.7262 154.184 62.5822 154.176 62.3582 154.176H61.3822V156.016ZM68.0683 153.512C69.3483 153.664 70.2923 154.504 70.2923 156.176C70.2923 157.824 69.3163 158.808 68.0363 158.968C67.7563 159 67.6283 159 67.3323 159H65.5803V153.48H67.3643C67.6603 153.48 67.7883 153.48 68.0683 153.512ZM67.8843 158.264C68.7723 158.136 69.3483 157.4 69.3483 156.176C69.3483 155.016 68.7963 154.344 67.9163 154.216C67.7403 154.184 67.5483 154.176 67.2843 154.176H66.4603V158.296H67.2523C67.5243 158.296 67.7083 158.296 67.8843 158.264ZM77.5388 159H76.2748L73.8268 154.448C73.8508 155.08 73.8588 155.792 73.8588 156.36V159H72.9788V153.48H74.2188L76.6908 158.064C76.6748 157.44 76.6668 156.704 76.6668 156.136V153.48H77.5308L77.5388 159ZM83.1492 153.48V156.864C83.1492 157.064 83.1492 157.224 83.1332 157.432C83.0532 158.352 82.4212 159.112 80.9812 159.112C79.5412 159.112 78.9092 158.352 78.8372 157.432C78.8212 157.224 78.8212 157.064 78.8212 156.864V153.48H79.6932V156.88C79.6932 157.048 79.6932 157.2 79.7092 157.328C79.7652 157.992 80.1892 158.44 80.9812 158.44C81.7812 158.44 82.2052 157.992 82.2612 157.328C82.2772 157.2 82.2772 157.048 82.2772 156.88V153.48H83.1492ZM90.1124 153.48V159H89.2404V156.288C89.2404 155.656 89.2404 154.896 89.2564 154.312C89.0964 154.896 88.8644 155.656 88.6564 156.28L87.7684 159H86.7524L85.8564 156.272C85.6564 155.656 85.4244 154.904 85.2724 154.32C85.2884 154.912 85.2884 155.656 85.2884 156.288V159H84.4084V153.48H85.8244L87.2804 158.216L88.7364 153.48H90.1124ZM94.4235 156.048C95.1435 156.224 95.5275 156.632 95.5275 157.368C95.5275 158.376 94.7915 158.856 94.0635 158.96C93.7915 159 93.6075 159 93.3275 159H91.4475V153.48H93.2315C93.5035 153.48 93.6795 153.48 93.9515 153.512C94.8315 153.632 95.3275 154.104 95.3275 154.872C95.3275 155.496 94.9915 155.856 94.4235 156.048ZM92.3275 154.176V155.808H93.2875C93.4235 155.808 93.5595 155.8 93.7035 155.776C94.1915 155.696 94.3995 155.416 94.3995 154.968C94.3995 154.48 94.0875 154.248 93.6475 154.2C93.5195 154.184 93.3595 154.176 93.2315 154.176H92.3275ZM93.7915 158.288C94.2475 158.248 94.5995 157.944 94.5995 157.408C94.5995 156.808 94.2555 156.568 93.7835 156.512C93.6235 156.488 93.4955 156.488 93.3675 156.488H92.3275V158.296H93.4155C93.5435 158.296 93.6875 158.296 93.7915 158.288ZM100.389 158.296V159H96.5725V153.48H100.309V154.176H97.4525V155.888H100.085V156.584H97.4525V158.296H100.389ZM105.169 157.576C105.233 158.272 105.329 158.696 105.553 159H104.585C104.441 158.64 104.369 158.296 104.305 157.688C104.233 157.104 104.017 156.736 103.513 156.704C103.377 156.696 103.241 156.696 103.105 156.696H102.249V159H101.369V153.48H103.273C103.569 153.48 103.769 153.48 104.033 153.512C104.833 153.616 105.433 154.04 105.433 154.984C105.433 155.704 104.993 156.128 104.409 156.304C104.905 156.52 105.113 157 105.169 157.576ZM102.249 156.016H103.169C103.393 156.016 103.529 156.016 103.665 156C104.145 155.952 104.505 155.68 104.505 155.096C104.505 154.512 104.209 154.272 103.737 154.208C103.593 154.184 103.449 154.176 103.225 154.176H102.249V156.016Z" fill="#D0D0D0"/>
<path d="M54.32 219H53.056L50.608 214.448C50.632 215.08 50.64 215.792 50.64 216.36V219H49.76V213.48H51L53.472 218.064C53.456 217.44 53.448 216.704 53.448 216.136V213.48H54.312L54.32 219ZM58.5784 217.176H56.6184L56.0184 219H55.0824L57.0664 213.48H58.2024L60.1304 219H59.1784L58.5784 217.176ZM56.8504 216.48H58.3464L57.6184 214.208L56.8504 216.48ZM66.6124 213.48V219H65.7404V216.288C65.7404 215.656 65.7404 214.896 65.7564 214.312C65.5964 214.896 65.3644 215.656 65.1564 216.28L64.2684 219H63.2524L62.3564 216.272C62.1564 215.656 61.9244 214.904 61.7724 214.32C61.7884 214.912 61.7884 215.656 61.7884 216.288V219H60.9084V213.48H62.3244L63.7804 218.216L65.2364 213.48H66.6124ZM71.7635 218.296V219H67.9475V213.48H71.6835V214.176H68.8275V215.888H71.4595V216.584H68.8275V218.296H71.7635Z" fill="#D0D0D0"/>
<path d="M55.156 229.72V234.724C55.156 235.06 55.156 235.324 55.12 235.792C55.036 237.196 54.172 238.168 52.324 238.168C50.608 238.168 49.696 237.16 49.648 235.552L49.636 235.096H50.956L50.98 235.552C51.04 236.68 51.556 237.16 52.444 237.16C53.32 237.16 53.752 236.608 53.824 235.708C53.836 235.456 53.836 235.168 53.836 234.784V229.72H55.156ZM59.3963 231.46C61.5323 231.46 62.6243 232.948 62.6243 234.808C62.6243 236.668 61.5323 238.168 59.3963 238.168C57.2483 238.168 56.1683 236.668 56.1683 234.808C56.1683 232.948 57.2483 231.46 59.3963 231.46ZM59.3963 237.208C60.5483 237.208 61.2203 236.248 61.2203 234.808C61.2203 233.368 60.5483 232.42 59.3963 232.42C58.2323 232.42 57.5603 233.368 57.5603 234.808C57.5603 236.248 58.2323 237.208 59.3963 237.208ZM69.413 233.284C69.437 233.608 69.449 233.896 69.449 234.412V238H68.129V234.556C68.129 234.256 68.129 233.98 68.105 233.656C68.045 232.936 67.661 232.42 66.761 232.432C65.849 232.456 65.105 233.152 65.105 235.144V238H63.785V229.12H65.105V232.684L65.537 231.952C66.041 231.568 66.509 231.46 67.145 231.46C68.513 231.46 69.293 232.168 69.413 233.284ZM76.6904 233.284C76.7144 233.608 76.7264 233.896 76.7264 234.412V238H75.4064V234.556C75.4064 234.256 75.4064 233.98 75.3824 233.656C75.3224 232.936 74.9384 232.432 74.0384 232.432C73.1264 232.432 72.3824 233.152 72.3824 235.144V238H71.0624V231.628H72.3824V232.684L72.8144 231.952C73.3184 231.568 73.7864 231.46 74.4224 231.46C75.7904 231.46 76.5704 232.168 76.6904 233.284ZM83.7764 229.552C85.6124 229.552 86.5124 230.632 86.6804 232.072H85.3124C85.2164 231.124 84.6644 230.56 83.7044 230.56C82.9244 230.56 82.3124 230.92 82.3124 231.7C82.3124 232.504 82.8044 232.876 84.0884 233.176C85.9124 233.596 86.7764 234.376 86.7764 235.756C86.7764 237.256 85.4444 238.168 83.8364 238.168C81.9404 238.168 80.7284 237.268 80.5604 235.6H81.9284C82.1444 236.62 82.8644 237.16 83.8364 237.16C84.7004 237.16 85.3844 236.692 85.3844 235.936C85.3844 235.072 84.8804 234.628 83.5364 234.316C81.9644 233.944 80.9204 233.356 80.9204 231.916C80.9204 230.452 82.2284 229.552 83.7764 229.552ZM93.5771 233.284C93.6011 233.608 93.6131 233.896 93.6131 234.412V238H92.2931V234.556C92.2931 234.256 92.2931 233.98 92.2691 233.656C92.2091 232.936 91.8251 232.432 90.9251 232.432C90.0131 232.432 89.2691 233.152 89.2691 235.144V238H87.9491V231.628H89.2691V232.684L89.7011 231.952C90.2051 231.568 90.6731 231.46 91.3091 231.46C92.6771 231.46 93.4571 232.168 93.5771 233.284ZM97.9744 231.46C100.11 231.46 101.202 232.948 101.202 234.808C101.202 236.668 100.11 238.168 97.9744 238.168C95.8264 238.168 94.7464 236.668 94.7464 234.808C94.7464 232.948 95.8264 231.46 97.9744 231.46ZM97.9744 237.208C99.1264 237.208 99.7984 236.248 99.7984 234.808C99.7984 233.368 99.1264 232.42 97.9744 232.42C96.8104 232.42 96.1384 233.368 96.1384 234.808C96.1384 236.248 96.8104 237.208 97.9744 237.208ZM111.171 231.628L109.143 238H107.631L106.371 232.852L105.099 238H103.575L101.547 231.628H103.035L104.343 236.824L105.579 231.64H107.187L108.459 236.836L109.767 231.628H111.171Z" fill="white"/>
<path d="M213.576 218.296V219H209.76V213.48H213.496V214.176H210.64V215.888H213.272V216.584H210.64V218.296H213.576ZM217.949 219L216.445 216.768L215.005 219H213.973L215.949 216.216L214.117 213.48H215.125L216.485 215.64L217.901 213.48H218.909L216.989 216.192L218.973 219H217.949ZM222.304 213.512C223.168 213.624 223.76 214.176 223.76 215.152C223.76 216.128 223.104 216.688 222.304 216.792C222.048 216.824 221.848 216.824 221.552 216.824H220.624V219H219.744V213.48H221.552C221.848 213.48 222.048 213.48 222.304 213.512ZM222.136 216.08C222.52 216.008 222.832 215.736 222.832 215.152C222.832 214.568 222.52 214.296 222.136 214.224C221.992 214.2 221.8 214.192 221.576 214.192H220.624V216.112H221.576C221.8 216.112 221.992 216.104 222.136 216.08ZM225.507 219H224.627V213.48H225.507V219ZM230.646 217.576C230.71 218.272 230.806 218.696 231.03 219H230.062C229.918 218.64 229.846 218.296 229.782 217.688C229.71 217.104 229.494 216.736 228.99 216.704C228.854 216.696 228.718 216.696 228.582 216.696H227.726V219H226.846V213.48H228.75C229.046 213.48 229.246 213.48 229.51 213.512C230.31 213.616 230.91 214.04 230.91 214.984C230.91 215.704 230.47 216.128 229.886 216.304C230.382 216.52 230.59 217 230.646 217.576ZM227.726 216.016H228.646C228.87 216.016 229.006 216.016 229.142 216C229.622 215.952 229.982 215.68 229.982 215.096C229.982 214.512 229.686 214.272 229.214 214.208C229.07 214.184 228.926 214.176 228.702 214.176H227.726V216.016ZM234.132 216.84V219H233.26V216.84L231.308 213.48H232.308L233.732 216.032L235.108 213.48H236.084L234.132 216.84ZM240.873 213.512C242.153 213.664 243.097 214.504 243.097 216.176C243.097 217.824 242.121 218.808 240.841 218.968C240.561 219 240.433 219 240.137 219H238.385V213.48H240.169C240.465 213.48 240.593 213.48 240.873 213.512ZM240.689 218.264C241.577 218.136 242.153 217.4 242.153 216.176C242.153 215.016 241.601 214.344 240.721 214.216C240.545 214.184 240.353 214.176 240.089 214.176H239.265V218.296H240.057C240.329 218.296 240.513 218.296 240.689 218.264ZM246.852 217.176H244.892L244.292 219H243.356L245.34 213.48H246.476L248.404 219H247.452L246.852 217.176ZM245.124 216.48H246.62L245.892 214.208L245.124 216.48ZM252.788 214.176H250.86V219H249.988V214.176H248.06V213.48H252.788V214.176ZM257.342 218.296V219H253.526V213.48H257.262V214.176H254.406V215.888H257.038V216.584H254.406V218.296H257.342Z" fill="#D0D0D0"/>
<path d="M214.184 229.72V238H212.864V231.1L210.524 232.444V231.148L212.348 230.032C212.732 229.804 213.08 229.72 213.452 229.72H214.184ZM221.391 229.72V238H220.071V231.1L217.731 232.444V231.148L219.555 230.032C219.939 229.804 220.287 229.72 220.659 229.72H221.391ZM224.23 238.36H223.354L226.366 229.36H227.242L224.23 238.36ZM229.876 236.944H233.68V238H227.908V237.328L230.8 234.412C231.844 233.38 232.3 232.78 232.3 231.988C232.3 231.184 231.844 230.548 230.944 230.548C229.996 230.548 229.528 231.148 229.42 232.24L229.408 232.36H228.088L228.1 232.24C228.268 230.488 229.336 229.54 231.088 229.54C232.84 229.54 233.728 230.56 233.728 231.868C233.728 232.96 233.152 233.728 231.7 235.144L229.876 236.944ZM239.327 233.608C240.395 233.872 241.019 234.568 241.019 235.66C241.019 237.208 239.651 238.168 237.923 238.168C236.219 238.168 235.091 237.376 234.911 235.624L234.899 235.504H236.219L236.231 235.624C236.351 236.644 237.047 237.16 237.983 237.16C238.931 237.16 239.591 236.608 239.591 235.72C239.591 234.808 239.003 234.304 237.779 234.292H237.539V233.32L237.779 233.308C238.715 233.296 239.399 232.756 239.399 231.832C239.399 231.076 238.883 230.56 238.079 230.56C237.263 230.56 236.663 231.088 236.567 232.036L236.555 232.156H235.247L235.259 232.036C235.403 230.56 236.435 229.552 238.223 229.552C239.879 229.552 240.827 230.452 240.827 231.676C240.827 232.636 240.263 233.344 239.327 233.608Z" fill="white"/>
<path d="M60.36 182.62H58.62V186H56.44V182.62H49.68V181.48L56.36 172.2H58.62V180.86H60.36V182.62ZM56.44 180.86V174.88C56.14 175.4 55.82 175.94 55.4 176.5L52.26 180.86H56.44ZM69.2317 178.68C71.0117 179.12 72.0517 180.28 72.0517 182.1C72.0517 184.68 69.7717 186.28 66.8917 186.28C64.0517 186.28 62.1717 184.96 61.8717 182.04L61.8517 181.84H64.0517L64.0717 182.04C64.2717 183.74 65.4317 184.6 66.9917 184.6C68.5717 184.6 69.6717 183.68 69.6717 182.2C69.6717 180.68 68.6917 179.84 66.6517 179.82H66.2517V178.2L66.6517 178.18C68.2117 178.16 69.3517 177.26 69.3517 175.72C69.3517 174.46 68.4917 173.6 67.1517 173.6C65.7917 173.6 64.7917 174.48 64.6317 176.06L64.6117 176.26H62.4317L62.4517 176.06C62.6917 173.6 64.4117 171.92 67.3917 171.92C70.1517 171.92 71.7317 173.42 71.7317 175.46C71.7317 177.06 70.7917 178.24 69.2317 178.68ZM79.5234 176.82C82.5234 176.82 84.1234 178.76 84.1234 181.48C84.1234 184.56 81.6834 186.28 79.0434 186.28C76.1434 186.28 74.4634 184.96 74.1834 182.28L74.1634 182.08H76.3634L76.3834 182.28C76.6634 183.7 77.4434 184.6 78.9834 184.6C80.6834 184.6 81.7434 183.46 81.7434 181.58C81.7434 179.72 80.7434 178.5 79.0434 178.5C77.8634 178.5 77.0434 179 76.4434 180.28H74.3834L75.3634 172.2H83.5434V173.94H77.1434L76.5834 178.32L77.3634 177.38C78.0034 177 78.7034 176.82 79.5234 176.82ZM93.4952 178.7C94.9352 179.16 96.1352 180.4 96.1352 182.12C96.1352 185.14 93.6552 186.3 91.0352 186.3C88.2152 186.3 85.9552 185.14 85.9552 182.12C85.9552 180.4 87.2152 179.16 88.6752 178.7C87.4552 178.24 86.5752 177.22 86.5752 175.68C86.5752 173.4 88.3352 171.92 91.1752 171.92C94.0352 171.92 95.7752 173.4 95.7752 175.68C95.7752 177.24 94.7552 178.26 93.4952 178.7ZM91.1752 173.6C89.6752 173.6 88.8752 174.54 88.8752 175.76C88.8752 177.06 89.6552 177.98 91.1552 177.98C92.6552 177.98 93.4752 177.06 93.4752 175.76C93.4752 174.54 92.6952 173.6 91.1752 173.6ZM91.0752 184.62C92.9152 184.62 93.7552 183.6 93.7552 182.14C93.7552 180.8 92.9552 179.66 91.0552 179.66C89.1952 179.66 88.3152 180.78 88.3152 182.14C88.3152 183.6 89.2552 184.62 91.0752 184.62Z" fill="white"/>
<line x1="110" y1="182" x2="117" y2="182" stroke="white" stroke-width="2"/>
<path d="M140.16 172.2V173.3L133.4 186H131.04L137.54 173.94H130.04V172.2H140.16ZM152.372 182.62H150.632V186H148.452V182.62H141.692V181.48L148.372 172.2H150.632V180.86H152.372V182.62ZM148.452 180.86V174.88C148.152 175.4 147.832 175.94 147.412 176.5L144.272 180.86H148.452ZM157.503 184.24H163.843V186H154.223V184.88L159.043 180.02C160.783 178.3 161.543 177.3 161.543 175.98C161.543 174.64 160.783 173.58 159.283 173.58C157.703 173.58 156.923 174.58 156.743 176.4L156.723 176.6H154.523L154.543 176.4C154.823 173.48 156.603 171.9 159.523 171.9C162.443 171.9 163.923 173.6 163.923 175.78C163.923 177.6 162.963 178.88 160.543 181.24L157.503 184.24ZM173.675 172.2V186H171.475V174.5L167.575 176.74V174.58L170.615 172.72C171.255 172.34 171.835 172.2 172.455 172.2H173.675Z" fill="white"/>
<line x1="190" y1="182" x2="197" y2="182" stroke="white" stroke-width="2"/>
<path d="M215.02 171.92C218.28 171.92 220.1 173.9 220.1 178.54C220.1 183.9 217.64 186.28 214.6 186.28C212.04 186.28 210.36 184.8 210.14 182.48L210.12 182.28H212.4L212.44 182.48C212.74 183.9 213.48 184.6 214.76 184.6C216.48 184.6 217.64 183.14 217.78 179.42L217.04 180.66C216.3 181.26 215.54 181.5 214.54 181.5C211.6 181.5 209.98 179.54 209.98 176.9C209.98 173.84 212.2 171.92 215.02 171.92ZM215.04 179.82C216.46 179.82 217.66 178.74 217.66 176.68C217.66 174.92 216.62 173.6 215.04 173.6C213.44 173.6 212.36 174.86 212.36 176.64C212.36 178.4 213.18 179.82 215.04 179.82ZM225.492 184.24H231.832V186H222.212V184.88L227.032 180.02C228.772 178.3 229.532 177.3 229.532 175.98C229.532 174.64 228.772 173.58 227.272 173.58C225.692 173.58 224.912 174.58 224.732 176.4L224.712 176.6H222.512L222.532 176.4C222.812 173.48 224.592 171.9 227.512 171.9C230.432 171.9 231.912 173.6 231.912 175.78C231.912 177.6 230.952 178.88 228.532 181.24L225.492 184.24ZM239.523 176.82C242.523 176.82 244.123 178.76 244.123 181.48C244.123 184.56 241.683 186.28 239.043 186.28C236.143 186.28 234.463 184.96 234.183 182.28L234.163 182.08H236.363L236.383 182.28C236.663 183.7 237.443 184.6 238.983 184.6C240.683 184.6 241.743 183.46 241.743 181.58C241.743 179.72 240.743 178.5 239.043 178.5C237.863 178.5 237.043 179 236.443 180.28H234.383L235.363 172.2H243.543V173.94H237.143L236.583 178.32L237.363 177.38C238.003 177 238.703 176.82 239.523 176.82ZM251.515 176.7C254.455 176.7 256.075 178.66 256.075 181.3C256.075 184.36 253.835 186.28 251.015 186.28C247.775 186.28 245.955 184.28 245.955 179.66C245.955 174.3 248.415 171.92 251.455 171.92C253.995 171.92 255.655 173.4 255.915 175.7L255.935 175.9H253.655L253.615 175.7C253.295 174.3 252.555 173.6 251.295 173.6C249.575 173.6 248.415 175.04 248.275 178.78L249.015 177.54C249.755 176.92 250.515 176.7 251.515 176.7ZM251.015 184.6C252.615 184.6 253.695 183.34 253.695 181.56C253.695 179.78 252.875 178.38 250.995 178.38C249.595 178.38 248.395 179.46 248.395 181.52C248.395 183.28 249.415 184.6 251.015 184.6Z" fill="white"/>
<line x1="270" y1="182" x2="277" y2="182" stroke="white" stroke-width="2"/>
<path d="M295.48 176.7C298.42 176.7 300.04 178.66 300.04 181.3C300.04 184.36 297.8 186.28 294.98 186.28C291.74 186.28 289.92 184.28 289.92 179.66C289.92 174.3 292.38 171.92 295.42 171.92C297.96 171.92 299.62 173.4 299.88 175.7L299.9 175.9H297.62L297.58 175.7C297.26 174.3 296.52 173.6 295.26 173.6C293.54 173.6 292.38 175.04 292.24 178.78L292.98 177.54C293.72 176.92 294.48 176.7 295.48 176.7ZM294.98 184.6C296.58 184.6 297.66 183.34 297.66 181.56C297.66 179.78 296.84 178.38 294.96 178.38C293.56 178.38 292.36 179.46 292.36 181.52C292.36 183.28 293.38 184.6 294.98 184.6ZM307.492 176.7C310.432 176.7 312.052 178.66 312.052 181.3C312.052 184.36 309.812 186.28 306.992 186.28C303.752 186.28 301.932 184.28 301.932 179.66C301.932 174.3 304.392 171.92 307.432 171.92C309.972 171.92 311.632 173.4 311.892 175.7L311.912 175.9H309.632L309.592 175.7C309.272 174.3 308.532 173.6 307.272 173.6C305.552 173.6 304.392 175.04 304.252 178.78L304.992 177.54C305.732 176.92 306.492 176.7 307.492 176.7ZM306.992 184.6C308.592 184.6 309.672 183.34 309.672 181.56C309.672 179.78 308.852 178.38 306.972 178.38C305.572 178.38 304.372 179.46 304.372 181.52C304.372 183.28 305.392 184.6 306.992 184.6ZM321.483 178.7C322.923 179.16 324.123 180.4 324.123 182.12C324.123 185.14 321.643 186.3 319.023 186.3C316.203 186.3 313.943 185.14 313.943 182.12C313.943 180.4 315.203 179.16 316.663 178.7C315.443 178.24 314.563 177.22 314.563 175.68C314.563 173.4 316.323 171.92 319.163 171.92C322.023 171.92 323.763 173.4 323.763 175.68C323.763 177.24 322.743 178.26 321.483 178.7ZM319.163 173.6C317.663 173.6 316.863 174.54 316.863 175.76C316.863 177.06 317.643 177.98 319.143 177.98C320.643 177.98 321.463 177.06 321.463 175.76C321.463 174.54 320.683 173.6 319.163 173.6ZM319.063 184.62C320.903 184.62 321.743 183.6 321.743 182.14C321.743 180.8 320.943 179.66 319.043 179.66C317.183 179.66 316.303 180.78 316.303 182.14C316.303 183.6 317.243 184.62 319.063 184.62ZM329.515 184.24H335.855V186H326.235V184.88L331.055 180.02C332.795 178.3 333.555 177.3 333.555 175.98C333.555 174.64 332.795 173.58 331.295 173.58C329.715 173.58 328.935 174.58 328.755 176.4L328.735 176.6H326.535L326.555 176.4C326.835 173.48 328.615 171.9 331.535 171.9C334.455 171.9 335.935 173.6 335.935 175.78C335.935 177.6 334.975 178.88 332.555 181.24L329.515 184.24Z" fill="white"/>
<rect x="292" y="99" width="46" height="24" rx="6" fill="#5CCAA7"/>
<path d="M304.63 112.92H302.31L301.62 115H300.15L302.64 108.1H304.37L306.81 115H305.31L304.63 112.92ZM303.48 109.28L302.66 111.83H304.28L303.48 109.28ZM309.629 109.54C311.069 109.54 311.959 110.42 312.059 111.6H310.699C310.569 110.83 310.169 110.51 309.599 110.51C308.899 110.51 308.399 111.08 308.399 112.29C308.399 113.61 308.899 114.17 309.589 114.17C310.129 114.17 310.529 113.83 310.669 113.16H312.049C311.819 114.47 310.839 115.14 309.509 115.14C308.059 115.14 306.969 114.22 306.969 112.38C306.969 110.56 308.169 109.54 309.629 109.54ZM314.585 110.63V113.09C314.585 113.27 314.585 113.42 314.595 113.56C314.635 114.08 314.825 114.2 315.595 114.14V115.04C315.285 115.09 314.995 115.11 314.685 115.11C313.655 115.11 313.285 114.77 313.225 114.02C313.205 113.78 313.205 113.55 313.205 113.25V110.63H312.425V109.72H313.205V108.41H314.585V109.72H315.685V110.63H314.585ZM317.238 107.7C317.688 107.7 317.998 108 317.998 108.43C317.998 108.87 317.688 109.16 317.238 109.16C316.788 109.16 316.478 108.87 316.478 108.43C316.478 108 316.788 107.7 317.238 107.7ZM317.928 115H316.548V109.68H317.928V115ZM324.244 109.68L322.184 115H320.644L318.574 109.68H320.104L321.444 113.96L322.754 109.68H324.244ZM329.523 112.23C329.523 112.36 329.523 112.52 329.503 112.7H325.723C325.813 113.82 326.313 114.17 326.953 114.17C327.543 114.17 327.973 113.84 328.063 113.27H329.443C329.173 114.51 328.173 115.14 326.923 115.14C325.463 115.14 324.333 114.23 324.333 112.36C324.333 110.73 325.403 109.54 327.033 109.54C328.663 109.54 329.523 110.78 329.523 112.23ZM326.973 110.51C326.333 110.51 325.883 110.92 325.763 111.8H328.103C328.013 110.96 327.633 110.51 326.973 110.51Z" fill="white"/>
<path d="M24.792 293.552C26.628 293.552 27.528 294.632 27.696 296.072H26.328C26.232 295.124 25.68 294.56 24.72 294.56C23.94 294.56 23.328 294.92 23.328 295.7C23.328 296.504 23.82 296.876 25.104 297.176C26.928 297.596 27.792 298.376 27.792 299.756C27.792 301.256 26.46 302.168 24.852 302.168C22.956 302.168 21.744 301.268 21.576 299.6H22.944C23.16 300.62 23.88 301.16 24.852 301.16C25.716 301.16 26.4 300.692 26.4 299.936C26.4 299.072 25.896 298.628 24.552 298.316C22.98 297.944 21.936 297.356 21.936 295.916C21.936 294.452 23.244 293.552 24.792 293.552ZM30.5367 296.6V299.936C30.5367 300.152 30.5367 300.296 30.5487 300.464C30.5967 301.088 30.8367 301.22 31.7007 301.136V302.048C31.3647 302.096 31.0527 302.12 30.7287 302.12C29.7327 302.12 29.3007 301.748 29.2407 300.908C29.2287 300.692 29.2287 300.416 29.2287 300.056V296.6H28.3287V295.676H29.2287V294.152H30.5367V295.676H31.7847V296.6H30.5367ZM36.6563 302L36.5363 301.076L36.2123 301.76C35.7803 302.06 35.2283 302.168 34.6283 302.168C33.5003 302.168 32.5763 301.52 32.5763 300.332C32.5763 298.916 33.7043 298.148 36.1163 298.148H36.5243V297.992C36.5243 297.752 36.5243 297.536 36.5003 297.296C36.4643 296.78 36.1403 296.42 35.3843 296.42C34.6163 296.42 34.2203 296.852 34.1483 297.644H32.8283C32.9123 296.252 33.9563 295.46 35.4083 295.46C37.0523 295.46 37.7003 296.156 37.8083 297.236C37.8323 297.5 37.8443 297.836 37.8443 298.136V300.38C37.8443 300.86 37.8683 301.292 37.9643 302H36.6563ZM35.1083 301.208C35.9363 301.208 36.5243 300.644 36.5243 299.612V299.024C34.9763 298.904 33.9683 299.252 33.9683 300.224C33.9683 300.896 34.4123 301.208 35.1083 301.208ZM42.3673 295.472C42.5473 295.472 42.6793 295.496 42.8113 295.544V296.576C41.5993 296.492 40.8433 297.116 40.8433 298.688V302H39.5233V295.628H40.8433V296.708L41.3833 295.832C41.6713 295.604 42.0433 295.472 42.3673 295.472ZM47.2218 295.46C49.0458 295.46 50.0898 296.84 50.0898 298.7C50.0898 301.04 48.6498 302.168 47.0058 302.168C46.4778 302.168 45.8178 302.024 45.4938 301.772L45.0738 301.136V302H43.7538V293.18H45.0738V296.624L45.5538 295.94C45.9138 295.64 46.5738 295.46 47.2218 295.46ZM46.8498 301.208C47.9058 301.208 48.6978 300.404 48.6978 298.82C48.6978 297.44 48.0618 296.42 46.9098 296.42C45.9258 296.42 45.0738 297.044 45.0738 298.748V299.072C45.0738 300.632 46.0098 301.208 46.8498 301.208ZM56.8215 295.628V302H55.5135V300.908L55.0695 301.7C54.5655 302.06 54.0975 302.168 53.4615 302.168C52.1415 302.168 51.3735 301.424 51.2295 300.548C51.1815 300.224 51.1695 299.936 51.1695 299.42V295.628H52.4775V299.156C52.4775 299.36 52.4895 299.708 52.5255 300.032C52.6215 300.728 53.0775 301.184 53.8935 301.184C54.8175 301.184 55.5135 300.476 55.5135 298.628V295.628H56.8215ZM61.1117 295.46C62.7197 295.46 63.7397 296.432 63.8957 297.836H62.5637C62.3717 296.864 61.8557 296.42 61.0757 296.42C60.1517 296.42 59.4197 297.152 59.4197 298.748C59.4197 300.476 60.1397 301.208 61.0277 301.208C61.7837 301.208 62.3237 300.752 62.5157 299.888H63.8597C63.5597 301.412 62.4557 302.168 60.9557 302.168C59.2877 302.168 58.0277 301.112 58.0277 298.844C58.0277 296.672 59.4437 295.46 61.1117 295.46ZM66.919 299.384L66.355 300.008V302H65.035V293.18H66.355V298.7L69.139 295.628H70.759L67.855 298.616L70.795 302H69.079L66.919 299.384ZM73.6847 295.46C75.1487 295.46 75.9647 296.288 76.1087 297.452H74.7647C74.6327 296.78 74.2367 296.384 73.5887 296.384C72.9647 296.384 72.6647 296.732 72.6647 297.212C72.6647 297.788 73.1327 298.028 74.0807 298.28C75.4727 298.64 76.2047 299.192 76.2047 300.32C76.2047 301.556 75.1127 302.168 73.7207 302.168C72.3047 302.168 71.2607 301.532 71.0807 300.092H72.4127C72.5687 300.908 73.1087 301.232 73.7687 301.232C74.3807 301.232 74.8727 300.968 74.8727 300.416C74.8727 299.864 74.4407 299.564 73.3607 299.276C72.1967 298.976 71.3327 298.484 71.3327 297.368C71.3327 296.18 72.2687 295.46 73.6847 295.46Z" fill="black"/>
<path d="M25.98 315.768C27.276 315.936 28.164 316.764 28.164 318.228C28.164 319.692 27.18 320.532 25.98 320.688C25.596 320.736 25.296 320.736 24.852 320.736H23.46V324H22.14V315.72H24.852C25.296 315.72 25.596 315.72 25.98 315.768ZM25.728 319.62C26.304 319.512 26.772 319.104 26.772 318.228C26.772 317.352 26.304 316.944 25.728 316.836C25.512 316.8 25.224 316.788 24.888 316.788H23.46V319.668H24.888C25.224 319.668 25.512 319.656 25.728 319.62ZM34.6362 320.652C34.6362 320.772 34.6362 320.952 34.6122 321.18H30.0402C30.1482 322.704 30.8442 323.208 31.7082 323.208C32.4762 323.208 33.0762 322.74 33.2082 321.936H34.5402C34.2642 323.448 33.0522 324.168 31.6602 324.168C29.9562 324.168 28.6722 323.088 28.6722 320.832C28.6722 318.816 29.9562 317.46 31.7922 317.46C33.6402 317.46 34.6362 318.852 34.6362 320.652ZM31.7442 318.42C30.8442 318.42 30.1962 319.032 30.0522 320.256H33.2802C33.1842 319.08 32.6682 318.42 31.7442 318.42ZM41.5185 319.284C41.5425 319.608 41.5545 319.896 41.5545 320.412V324H40.2345V320.556C40.2345 320.256 40.2345 319.98 40.2105 319.656C40.1505 318.936 39.7665 318.432 38.8665 318.432C37.9545 318.432 37.2105 319.152 37.2105 321.144V324H35.8905V317.628H37.2105V318.684L37.6425 317.952C38.1465 317.568 38.6145 317.46 39.2505 317.46C40.6185 317.46 41.3985 318.168 41.5185 319.284ZM49.0238 315.18V324H47.7038V322.992L47.2238 323.688C46.8638 323.976 46.2038 324.168 45.5558 324.168C43.7318 324.168 42.6878 322.788 42.6878 320.916C42.6878 318.588 44.1278 317.46 45.7718 317.46C46.2998 317.46 46.9598 317.604 47.2838 317.856L47.7038 318.492V315.18H49.0238ZM45.8558 323.208C46.8518 323.208 47.7038 322.584 47.7038 320.88V320.544C47.7038 318.996 46.7678 318.42 45.9158 318.42C44.8718 318.42 44.0798 319.224 44.0798 320.808C44.0798 322.188 44.7158 323.208 45.8558 323.208ZM51.3747 315.408C51.8187 315.408 52.1547 315.732 52.1547 316.164C52.1547 316.608 51.8187 316.932 51.3747 316.932C50.9307 316.932 50.6067 316.608 50.6067 316.164C50.6067 315.732 50.9307 315.408 51.3747 315.408ZM52.0347 324H50.7147V317.628H52.0347V324ZM59.3544 319.284C59.3784 319.608 59.3904 319.896 59.3904 320.412V324H58.0704V320.556C58.0704 320.256 58.0704 319.98 58.0464 319.656C57.9864 318.936 57.6024 318.432 56.7024 318.432C55.7904 318.432 55.0464 319.152 55.0464 321.144V324H53.7264V317.628H55.0464V318.684L55.4784 317.952C55.9824 317.568 56.4504 317.46 57.0864 317.46C58.4544 317.46 59.2344 318.168 59.3544 319.284ZM66.8598 317.628V322.416C66.8598 322.812 66.8598 323.304 66.8478 323.652C66.7758 325.584 65.5758 326.556 63.6558 326.556C61.8198 326.556 60.8478 325.788 60.7158 324.42L60.7038 324.3H61.9998L62.0118 324.408C62.0958 325.092 62.6838 325.56 63.6678 325.56C64.8198 325.56 65.4798 324.936 65.5278 323.796C65.5398 323.52 65.5398 323.292 65.5398 323.064V322.932L65.0598 323.628C64.6998 323.916 64.0758 324.108 63.4278 324.108C61.5918 324.108 60.5238 322.764 60.5238 320.892C60.5238 318.564 61.9638 317.46 63.6078 317.46C64.1358 317.46 64.7958 317.604 65.1198 317.856L65.5398 318.492V317.628H66.8598ZM63.6918 323.148C64.6878 323.148 65.5398 322.524 65.5398 320.82V320.544C65.5398 318.996 64.6038 318.42 63.7518 318.42C62.7078 318.42 61.9158 319.188 61.9158 320.772C61.9158 322.152 62.5518 323.148 63.6918 323.148ZM73.2193 321H70.5793V320.208H73.2193V321ZM79.8701 315.552C81.7061 315.552 82.6061 316.632 82.7741 318.072H81.4061C81.3101 317.124 80.7581 316.56 79.7981 316.56C79.0181 316.56 78.4061 316.92 78.4061 317.7C78.4061 318.504 78.8981 318.876 80.1821 319.176C82.0061 319.596 82.8701 320.376 82.8701 321.756C82.8701 323.256 81.5381 324.168 79.9301 324.168C78.0341 324.168 76.8221 323.268 76.6541 321.6H78.0221C78.2381 322.62 78.9581 323.16 79.9301 323.16C80.7941 323.16 81.4781 322.692 81.4781 321.936C81.4781 321.072 80.9741 320.628 79.6301 320.316C78.0581 319.944 77.0141 319.356 77.0141 317.916C77.0141 316.452 78.3221 315.552 79.8701 315.552ZM87.7148 324L87.5948 323.076L87.2708 323.76C86.8388 324.06 86.2868 324.168 85.6868 324.168C84.5588 324.168 83.6348 323.52 83.6348 322.332C83.6348 320.916 84.7628 320.148 87.1748 320.148H87.5828V319.992C87.5828 319.752 87.5828 319.536 87.5588 319.296C87.5228 318.78 87.1988 318.42 86.4428 318.42C85.6748 318.42 85.2788 318.852 85.2068 319.644H83.8868C83.9708 318.252 85.0148 317.46 86.4668 317.46C88.1108 317.46 88.7588 318.156 88.8668 319.236C88.8908 319.5 88.9028 319.836 88.9028 320.136V322.38C88.9028 322.86 88.9268 323.292 89.0228 324H87.7148ZM86.1668 323.208C86.9948 323.208 87.5828 322.644 87.5828 321.612V321.024C86.0348 320.904 85.0268 321.252 85.0268 322.224C85.0268 322.896 85.4708 323.208 86.1668 323.208ZM96.2099 319.284C96.2339 319.608 96.2459 319.896 96.2459 320.412V324H94.9259V320.556C94.9259 320.256 94.9259 319.98 94.9019 319.656C94.8419 318.936 94.4579 318.432 93.5579 318.432C92.6459 318.432 91.9019 319.152 91.9019 321.144V324H90.5819V317.628H91.9019V318.684L92.3339 317.952C92.8379 317.568 93.3059 317.46 93.9419 317.46C95.3099 317.46 96.0899 318.168 96.2099 319.284ZM101.964 316.764V319.332H105.792V320.376H101.964V324H100.644V315.72H106.248V316.764H101.964ZM110.125 317.472C110.305 317.472 110.437 317.496 110.569 317.544V318.576C109.357 318.492 108.601 319.116 108.601 320.688V324H107.281V317.628H108.601V318.708L109.141 317.832C109.429 317.604 109.801 317.472 110.125 317.472ZM115.184 324L115.064 323.076L114.74 323.76C114.308 324.06 113.756 324.168 113.156 324.168C112.028 324.168 111.104 323.52 111.104 322.332C111.104 320.916 112.232 320.148 114.644 320.148H115.052V319.992C115.052 319.752 115.052 319.536 115.028 319.296C114.992 318.78 114.668 318.42 113.912 318.42C113.144 318.42 112.748 318.852 112.676 319.644H111.356C111.44 318.252 112.484 317.46 113.936 317.46C115.58 317.46 116.228 318.156 116.336 319.236C116.36 319.5 116.372 319.836 116.372 320.136V322.38C116.372 322.86 116.396 323.292 116.492 324H115.184ZM113.636 323.208C114.464 323.208 115.052 322.644 115.052 321.612V321.024C113.504 320.904 112.496 321.252 112.496 322.224C112.496 322.896 112.94 323.208 113.636 323.208ZM123.679 319.284C123.703 319.608 123.715 319.896 123.715 320.412V324H122.395V320.556C122.395 320.256 122.395 319.98 122.371 319.656C122.311 318.936 121.927 318.432 121.027 318.432C120.115 318.432 119.371 319.152 119.371 321.144V324H118.051V317.628H119.371V318.684L119.803 317.952C120.307 317.568 120.775 317.46 121.411 317.46C122.779 317.46 123.559 318.168 123.679 319.284ZM127.932 317.46C129.54 317.46 130.56 318.432 130.716 319.836H129.384C129.192 318.864 128.676 318.42 127.896 318.42C126.972 318.42 126.24 319.152 126.24 320.748C126.24 322.476 126.96 323.208 127.848 323.208C128.604 323.208 129.144 322.752 129.336 321.888H130.68C130.38 323.412 129.276 324.168 127.776 324.168C126.108 324.168 124.848 323.112 124.848 320.844C124.848 318.672 126.264 317.46 127.932 317.46ZM132.515 315.408C132.959 315.408 133.295 315.732 133.295 316.164C133.295 316.608 132.959 316.932 132.515 316.932C132.071 316.932 131.747 316.608 131.747 316.164C131.747 315.732 132.071 315.408 132.515 315.408ZM133.175 324H131.855V317.628H133.175V324ZM136.919 317.46C138.383 317.46 139.199 318.288 139.343 319.452H137.999C137.867 318.78 137.471 318.384 136.823 318.384C136.199 318.384 135.899 318.732 135.899 319.212C135.899 319.788 136.367 320.028 137.315 320.28C138.707 320.64 139.439 321.192 139.439 322.32C139.439 323.556 138.347 324.168 136.955 324.168C135.539 324.168 134.495 323.532 134.315 322.092H135.647C135.803 322.908 136.343 323.232 137.003 323.232C137.615 323.232 138.107 322.968 138.107 322.416C138.107 321.864 137.675 321.564 136.595 321.276C135.431 320.976 134.567 320.484 134.567 319.368C134.567 318.18 135.503 317.46 136.919 317.46ZM143.178 317.46C144.786 317.46 145.806 318.432 145.962 319.836H144.63C144.438 318.864 143.922 318.42 143.142 318.42C142.218 318.42 141.486 319.152 141.486 320.748C141.486 322.476 142.206 323.208 143.094 323.208C143.85 323.208 144.39 322.752 144.582 321.888H145.926C145.626 323.412 144.522 324.168 143.022 324.168C141.354 324.168 140.094 323.112 140.094 320.844C140.094 318.672 141.51 317.46 143.178 317.46ZM149.849 317.46C151.985 317.46 153.077 318.948 153.077 320.808C153.077 322.668 151.985 324.168 149.849 324.168C147.701 324.168 146.621 322.668 146.621 320.808C146.621 318.948 147.701 317.46 149.849 317.46ZM149.849 323.208C151.001 323.208 151.673 322.248 151.673 320.808C151.673 319.368 151.001 318.42 149.849 318.42C148.685 318.42 148.013 319.368 148.013 320.808C148.013 322.248 148.685 323.208 149.849 323.208ZM155.33 322.704L154.202 325.452H153.05L153.998 322.584H155.33V322.704ZM166.22 315.72V320.796C166.22 321.096 166.22 321.336 166.196 321.648C166.076 323.028 165.128 324.168 162.968 324.168C160.808 324.168 159.86 323.028 159.752 321.648C159.728 321.336 159.728 321.096 159.728 320.796V315.72H161.036V320.82C161.036 321.072 161.036 321.3 161.06 321.492C161.144 322.488 161.78 323.16 162.968 323.16C164.168 323.16 164.804 322.488 164.888 321.492C164.912 321.3 164.912 321.072 164.912 320.82V315.72H166.22ZM173.425 319.284C173.449 319.608 173.461 319.896 173.461 320.412V324H172.141V320.556C172.141 320.256 172.141 319.98 172.117 319.656C172.057 318.936 171.673 318.432 170.773 318.432C169.861 318.432 169.117 319.152 169.117 321.144V324H167.797V317.628H169.117V318.684L169.549 317.952C170.053 317.568 170.521 317.46 171.157 317.46C172.525 317.46 173.305 318.168 173.425 319.284ZM175.734 315.408C176.178 315.408 176.514 315.732 176.514 316.164C176.514 316.608 176.178 316.932 175.734 316.932C175.29 316.932 174.966 316.608 174.966 316.164C174.966 315.732 175.29 315.408 175.734 315.408ZM176.394 324H175.074V317.628H176.394V324ZM179.658 318.6V321.936C179.658 322.152 179.658 322.296 179.67 322.464C179.718 323.088 179.958 323.22 180.822 323.136V324.048C180.486 324.096 180.174 324.12 179.85 324.12C178.854 324.12 178.422 323.748 178.362 322.908C178.35 322.692 178.35 322.416 178.35 322.056V318.6H177.45V317.676H178.35V316.152H179.658V317.676H180.906V318.6H179.658ZM187.449 320.652C187.449 320.772 187.449 320.952 187.425 321.18H182.853C182.961 322.704 183.657 323.208 184.521 323.208C185.289 323.208 185.889 322.74 186.021 321.936H187.353C187.077 323.448 185.865 324.168 184.473 324.168C182.769 324.168 181.485 323.088 181.485 320.832C181.485 318.816 182.769 317.46 184.605 317.46C186.453 317.46 187.449 318.852 187.449 320.652ZM184.557 318.42C183.657 318.42 183.009 319.032 182.865 320.256H186.093C185.997 319.08 185.481 318.42 184.557 318.42ZM194.559 315.18V324H193.239V322.992L192.759 323.688C192.399 323.976 191.739 324.168 191.091 324.168C189.267 324.168 188.223 322.788 188.223 320.916C188.223 318.588 189.663 317.46 191.307 317.46C191.835 317.46 192.495 317.604 192.819 317.856L193.239 318.492V315.18H194.559ZM191.391 323.208C192.387 323.208 193.239 322.584 193.239 320.88V320.544C193.239 318.996 192.303 318.42 191.451 318.42C190.407 318.42 189.615 319.224 189.615 320.808C189.615 322.188 190.251 323.208 191.391 323.208ZM201.687 315.552C203.523 315.552 204.423 316.632 204.591 318.072H203.223C203.127 317.124 202.575 316.56 201.615 316.56C200.835 316.56 200.223 316.92 200.223 317.7C200.223 318.504 200.715 318.876 201.999 319.176C203.823 319.596 204.687 320.376 204.687 321.756C204.687 323.256 203.355 324.168 201.747 324.168C199.851 324.168 198.639 323.268 198.471 321.6H199.839C200.055 322.62 200.775 323.16 201.747 323.16C202.611 323.16 203.295 322.692 203.295 321.936C203.295 321.072 202.791 320.628 201.447 320.316C199.875 319.944 198.831 319.356 198.831 317.916C198.831 316.452 200.139 315.552 201.687 315.552ZM207.431 318.6V321.936C207.431 322.152 207.431 322.296 207.443 322.464C207.491 323.088 207.731 323.22 208.595 323.136V324.048C208.259 324.096 207.947 324.12 207.623 324.12C206.627 324.12 206.195 323.748 206.135 322.908C206.123 322.692 206.123 322.416 206.123 322.056V318.6H205.223V317.676H206.123V316.152H207.431V317.676H208.679V318.6H207.431ZM213.551 324L213.431 323.076L213.107 323.76C212.675 324.06 212.123 324.168 211.523 324.168C210.395 324.168 209.471 323.52 209.471 322.332C209.471 320.916 210.599 320.148 213.011 320.148H213.419V319.992C213.419 319.752 213.419 319.536 213.395 319.296C213.359 318.78 213.035 318.42 212.279 318.42C211.511 318.42 211.115 318.852 211.043 319.644H209.723C209.807 318.252 210.851 317.46 212.303 317.46C213.947 317.46 214.595 318.156 214.703 319.236C214.727 319.5 214.739 319.836 214.739 320.136V322.38C214.739 322.86 214.763 323.292 214.859 324H213.551ZM212.003 323.208C212.831 323.208 213.419 322.644 213.419 321.612V321.024C211.871 320.904 210.863 321.252 210.863 322.224C210.863 322.896 211.307 323.208 212.003 323.208ZM217.99 318.6V321.936C217.99 322.152 217.99 322.296 218.002 322.464C218.05 323.088 218.29 323.22 219.154 323.136V324.048C218.818 324.096 218.506 324.12 218.182 324.12C217.186 324.12 216.754 323.748 216.694 322.908C216.682 322.692 216.682 322.416 216.682 322.056V318.6H215.782V317.676H216.682V316.152H217.99V317.676H219.238V318.6H217.99ZM225.781 320.652C225.781 320.772 225.781 320.952 225.757 321.18H221.185C221.293 322.704 221.989 323.208 222.853 323.208C223.621 323.208 224.221 322.74 224.353 321.936H225.685C225.409 323.448 224.197 324.168 222.805 324.168C221.101 324.168 219.817 323.088 219.817 320.832C219.817 318.816 221.101 317.46 222.937 317.46C224.785 317.46 225.781 318.852 225.781 320.652ZM222.889 318.42C221.989 318.42 221.341 319.032 221.197 320.256H224.425C224.329 319.08 223.813 318.42 222.889 318.42ZM229.087 317.46C230.551 317.46 231.367 318.288 231.511 319.452H230.167C230.035 318.78 229.639 318.384 228.991 318.384C228.367 318.384 228.067 318.732 228.067 319.212C228.067 319.788 228.535 320.028 229.483 320.28C230.875 320.64 231.607 321.192 231.607 322.32C231.607 323.556 230.515 324.168 229.123 324.168C227.707 324.168 226.663 323.532 226.483 322.092H227.815C227.971 322.908 228.511 323.232 229.171 323.232C229.783 323.232 230.275 322.968 230.275 322.416C230.275 321.864 229.843 321.564 228.763 321.276C227.599 320.976 226.735 320.484 226.735 319.368C226.735 318.18 227.671 317.46 229.087 317.46Z" fill="#747A83"/>
<path d="M312.588 299.804C312.588 301.172 311.508 302 310.08 302.144V303.08H309.264V302.156C307.704 302.036 306.684 301.184 306.6 299.72H307.944C308.04 300.5 308.52 301.004 309.264 301.148V298.364C307.812 297.932 306.912 297.308 306.912 295.928C306.912 294.512 307.944 293.72 309.264 293.576V292.64H310.08V293.564C311.592 293.708 312.372 294.692 312.528 295.952H311.184C311.1 295.22 310.776 294.704 310.08 294.56V297.176C311.904 297.752 312.588 298.508 312.588 299.804ZM308.232 295.76C308.232 296.468 308.568 296.804 309.264 297.032V294.56C308.628 294.668 308.232 295.076 308.232 295.76ZM310.08 298.532V301.16C310.788 301.064 311.244 300.68 311.244 299.924C311.244 299.312 310.968 298.844 310.08 298.532ZM317.107 296.492C318.907 296.492 319.867 297.656 319.867 299.288C319.867 301.136 318.403 302.168 316.819 302.168C315.079 302.168 314.071 301.376 313.903 299.768L313.891 299.648H315.211L315.223 299.768C315.391 300.62 315.859 301.16 316.783 301.16C317.803 301.16 318.439 300.476 318.439 299.348C318.439 298.232 317.839 297.5 316.819 297.5C316.111 297.5 315.619 297.8 315.259 298.568H314.023L314.611 293.72H319.519V294.764H315.679L315.343 297.392L315.811 296.828C316.195 296.6 316.615 296.492 317.107 296.492ZM322.334 300.704L321.206 303.452H320.054L321.002 300.584H322.334V300.704ZM327.103 296.492C328.903 296.492 329.863 297.656 329.863 299.288C329.863 301.136 328.399 302.168 326.815 302.168C325.075 302.168 324.067 301.376 323.899 299.768L323.887 299.648H325.207L325.219 299.768C325.387 300.62 325.855 301.16 326.779 301.16C327.799 301.16 328.435 300.476 328.435 299.348C328.435 298.232 327.835 297.5 326.815 297.5C326.107 297.5 325.615 297.8 325.255 298.568H324.019L324.607 293.72H329.515V294.764H325.675L325.339 297.392L325.807 296.828C326.191 296.6 326.611 296.492 327.103 296.492ZM334.01 293.552C336.326 293.552 337.106 295.352 337.106 297.86C337.106 300.344 336.326 302.168 334.01 302.168C331.706 302.168 330.914 300.344 330.914 297.86C330.914 295.352 331.706 293.552 334.01 293.552ZM334.01 301.16C335.198 301.16 335.678 299.984 335.678 297.86C335.678 295.712 335.198 294.56 334.01 294.56C332.834 294.56 332.342 295.712 332.342 297.86C332.342 299.984 332.834 301.16 334.01 301.16ZM347.638 293.72V298.796C347.638 299.096 347.638 299.336 347.614 299.648C347.494 301.028 346.546 302.168 344.386 302.168C342.226 302.168 341.278 301.028 341.17 299.648C341.146 299.336 341.146 299.096 341.146 298.796V293.72H342.454V298.82C342.454 299.072 342.454 299.3 342.478 299.492C342.562 300.488 343.198 301.16 344.386 301.16C345.586 301.16 346.222 300.488 346.306 299.492C346.33 299.3 346.33 299.072 346.33 298.82V293.72H347.638ZM352.179 293.552C354.015 293.552 354.915 294.632 355.083 296.072H353.715C353.619 295.124 353.067 294.56 352.107 294.56C351.327 294.56 350.715 294.92 350.715 295.7C350.715 296.504 351.207 296.876 352.491 297.176C354.315 297.596 355.179 298.376 355.179 299.756C355.179 301.256 353.847 302.168 352.239 302.168C350.343 302.168 349.131 301.268 348.963 299.6H350.331C350.547 300.62 351.267 301.16 352.239 301.16C353.103 301.16 353.787 300.692 353.787 299.936C353.787 299.072 353.283 298.628 351.939 298.316C350.367 297.944 349.323 297.356 349.323 295.916C349.323 294.452 350.631 293.552 352.179 293.552ZM360.395 293.768C362.315 293.996 363.731 295.256 363.731 297.764C363.731 300.236 362.267 301.712 360.347 301.952C359.927 302 359.735 302 359.291 302H356.663V293.72H359.339C359.783 293.72 359.975 293.72 360.395 293.768ZM360.119 300.896C361.451 300.704 362.315 299.6 362.315 297.764C362.315 296.024 361.487 295.016 360.167 294.824C359.903 294.776 359.615 294.764 359.219 294.764H357.983V300.944H359.171C359.579 300.944 359.855 300.944 360.119 300.896Z" fill="black"/>
<line x1="21" y1="341.5" x2="365" y2="341.5" stroke="#CAD4DB"/>
<path d="M28.98 366H27.084L23.412 359.172C23.448 360.12 23.46 361.188 23.46 362.04V366H22.14V357.72H24L27.708 364.596C27.684 363.66 27.672 362.556 27.672 361.704V357.72H28.968L28.98 366ZM31.3357 357.408C31.7797 357.408 32.1157 357.732 32.1157 358.164C32.1157 358.608 31.7797 358.932 31.3357 358.932C30.8917 358.932 30.5677 358.608 30.5677 358.164C30.5677 357.732 30.8917 357.408 31.3357 357.408ZM31.9957 366H30.6757V359.628H31.9957V366ZM35.5714 363.384L35.0074 364.008V366H33.6874V357.18H35.0074V362.7L37.7914 359.628H39.4114L36.5074 362.616L39.4474 366H37.7314L35.5714 363.384ZM45.605 362.652C45.605 362.772 45.605 362.952 45.581 363.18H41.009C41.117 364.704 41.813 365.208 42.677 365.208C43.445 365.208 44.045 364.74 44.177 363.936H45.509C45.233 365.448 44.021 366.168 42.629 366.168C40.925 366.168 39.641 365.088 39.641 362.832C39.641 360.816 40.925 359.46 42.761 359.46C44.609 359.46 45.605 360.852 45.605 362.652ZM42.713 360.42C41.813 360.42 41.165 361.032 41.021 362.256H44.249C44.153 361.08 43.637 360.42 42.713 360.42ZM52.2959 357.552C54.1319 357.552 55.0319 358.632 55.1999 360.072H53.8319C53.7359 359.124 53.1839 358.56 52.2239 358.56C51.4439 358.56 50.8319 358.92 50.8319 359.7C50.8319 360.504 51.3239 360.876 52.6079 361.176C54.4319 361.596 55.2959 362.376 55.2959 363.756C55.2959 365.256 53.9639 366.168 52.3559 366.168C50.4599 366.168 49.2479 365.268 49.0799 363.6H50.4479C50.6639 364.62 51.3839 365.16 52.3559 365.16C53.2199 365.16 53.9039 364.692 53.9039 363.936C53.9039 363.072 53.3999 362.628 52.0559 362.316C50.4839 361.944 49.4399 361.356 49.4399 359.916C49.4399 358.452 50.7479 357.552 52.2959 357.552ZM59.9366 359.46C61.7606 359.46 62.8046 360.84 62.8046 362.7C62.8046 365.04 61.3646 366.168 59.7206 366.168C59.1926 366.168 58.5326 366.024 58.2086 365.772L57.7886 365.136V368.352H56.4686V359.628H57.7886V360.624L58.2686 359.94C58.6286 359.64 59.2886 359.46 59.9366 359.46ZM59.5646 365.208C60.6206 365.208 61.4126 364.404 61.4126 362.82C61.4126 361.44 60.7766 360.42 59.6246 360.42C58.6406 360.42 57.7886 361.044 57.7886 362.748V363.072C57.7886 364.632 58.7246 365.208 59.5646 365.208ZM66.7283 359.46C68.8643 359.46 69.9563 360.948 69.9563 362.808C69.9563 364.668 68.8643 366.168 66.7283 366.168C64.5803 366.168 63.5003 364.668 63.5003 362.808C63.5003 360.948 64.5803 359.46 66.7283 359.46ZM66.7283 365.208C67.8803 365.208 68.5523 364.248 68.5523 362.808C68.5523 361.368 67.8803 360.42 66.7283 360.42C65.5643 360.42 64.8923 361.368 64.8923 362.808C64.8923 364.248 65.5643 365.208 66.7283 365.208ZM73.9611 359.472C74.1411 359.472 74.2731 359.496 74.4051 359.544V360.576C73.1931 360.492 72.4371 361.116 72.4371 362.688V366H71.1171V359.628H72.4371V360.708L72.9771 359.832C73.2651 359.604 73.6371 359.472 73.9611 359.472ZM76.9195 360.6V363.936C76.9195 364.152 76.9195 364.296 76.9315 364.464C76.9795 365.088 77.2195 365.22 78.0835 365.136V366.048C77.7475 366.096 77.4355 366.12 77.1115 366.12C76.1155 366.12 75.6835 365.748 75.6235 364.908C75.6115 364.692 75.6115 364.416 75.6115 364.056V360.6H74.7115V359.676H75.6115V358.152H76.9195V359.676H78.1675V360.6H76.9195ZM81.4191 359.46C82.8831 359.46 83.6991 360.288 83.8431 361.452H82.4991C82.3671 360.78 81.9711 360.384 81.3231 360.384C80.6991 360.384 80.3991 360.732 80.3991 361.212C80.3991 361.788 80.8671 362.028 81.8151 362.28C83.2071 362.64 83.9391 363.192 83.9391 364.32C83.9391 365.556 82.8471 366.168 81.4551 366.168C80.0391 366.168 78.9951 365.532 78.8151 364.092H80.1471C80.3031 364.908 80.8431 365.232 81.5031 365.232C82.1151 365.232 82.6071 364.968 82.6071 364.416C82.6071 363.864 82.1751 363.564 81.0951 363.276C79.9311 362.976 79.0671 362.484 79.0671 361.368C79.0671 360.18 80.0031 359.46 81.4191 359.46Z" fill="black"/>
<path d="M25.98 379.768C27.276 379.936 28.164 380.764 28.164 382.228C28.164 383.692 27.18 384.532 25.98 384.688C25.596 384.736 25.296 384.736 24.852 384.736H23.46V388H22.14V379.72H24.852C25.296 379.72 25.596 379.72 25.98 379.768ZM25.728 383.62C26.304 383.512 26.772 383.104 26.772 382.228C26.772 381.352 26.304 380.944 25.728 380.836C25.512 380.8 25.224 380.788 24.888 380.788H23.46V383.668H24.888C25.224 383.668 25.512 383.656 25.728 383.62ZM34.6362 384.652C34.6362 384.772 34.6362 384.952 34.6122 385.18H30.0402C30.1482 386.704 30.8442 387.208 31.7082 387.208C32.4762 387.208 33.0762 386.74 33.2082 385.936H34.5402C34.2642 387.448 33.0522 388.168 31.6602 388.168C29.9562 388.168 28.6722 387.088 28.6722 384.832C28.6722 382.816 29.9562 381.46 31.7922 381.46C33.6402 381.46 34.6362 382.852 34.6362 384.652ZM31.7442 382.42C30.8442 382.42 30.1962 383.032 30.0522 384.256H33.2802C33.1842 383.08 32.6682 382.42 31.7442 382.42ZM41.5185 383.284C41.5425 383.608 41.5545 383.896 41.5545 384.412V388H40.2345V384.556C40.2345 384.256 40.2345 383.98 40.2105 383.656C40.1505 382.936 39.7665 382.432 38.8665 382.432C37.9545 382.432 37.2105 383.152 37.2105 385.144V388H35.8905V381.628H37.2105V382.684L37.6425 381.952C38.1465 381.568 38.6145 381.46 39.2505 381.46C40.6185 381.46 41.3985 382.168 41.5185 383.284ZM49.0238 379.18V388H47.7038V386.992L47.2238 387.688C46.8638 387.976 46.2038 388.168 45.5558 388.168C43.7318 388.168 42.6878 386.788 42.6878 384.916C42.6878 382.588 44.1278 381.46 45.7718 381.46C46.2998 381.46 46.9598 381.604 47.2838 381.856L47.7038 382.492V379.18H49.0238ZM45.8558 387.208C46.8518 387.208 47.7038 386.584 47.7038 384.88V384.544C47.7038 382.996 46.7678 382.42 45.9158 382.42C44.8718 382.42 44.0798 383.224 44.0798 384.808C44.0798 386.188 44.7158 387.208 45.8558 387.208ZM51.3747 379.408C51.8187 379.408 52.1547 379.732 52.1547 380.164C52.1547 380.608 51.8187 380.932 51.3747 380.932C50.9307 380.932 50.6067 380.608 50.6067 380.164C50.6067 379.732 50.9307 379.408 51.3747 379.408ZM52.0347 388H50.7147V381.628H52.0347V388ZM59.3544 383.284C59.3784 383.608 59.3904 383.896 59.3904 384.412V388H58.0704V384.556C58.0704 384.256 58.0704 383.98 58.0464 383.656C57.9864 382.936 57.6024 382.432 56.7024 382.432C55.7904 382.432 55.0464 383.152 55.0464 385.144V388H53.7264V381.628H55.0464V382.684L55.4784 381.952C55.9824 381.568 56.4504 381.46 57.0864 381.46C58.4544 381.46 59.2344 382.168 59.3544 383.284ZM66.8598 381.628V386.416C66.8598 386.812 66.8598 387.304 66.8478 387.652C66.7758 389.584 65.5758 390.556 63.6558 390.556C61.8198 390.556 60.8478 389.788 60.7158 388.42L60.7038 388.3H61.9998L62.0118 388.408C62.0958 389.092 62.6838 389.56 63.6678 389.56C64.8198 389.56 65.4798 388.936 65.5278 387.796C65.5398 387.52 65.5398 387.292 65.5398 387.064V386.932L65.0598 387.628C64.6998 387.916 64.0758 388.108 63.4278 388.108C61.5918 388.108 60.5238 386.764 60.5238 384.892C60.5238 382.564 61.9638 381.46 63.6078 381.46C64.1358 381.46 64.7958 381.604 65.1198 381.856L65.5398 382.492V381.628H66.8598ZM63.6918 387.148C64.6878 387.148 65.5398 386.524 65.5398 384.82V384.544C65.5398 382.996 64.6038 382.42 63.7518 382.42C62.7078 382.42 61.9158 383.188 61.9158 384.772C61.9158 386.152 62.5518 387.148 63.6918 387.148ZM73.2193 385H70.5793V384.208H73.2193V385ZM82.9421 386.908V388H77.2181V379.72H78.5381V386.908H82.9421ZM84.6208 379.408C85.0648 379.408 85.4008 379.732 85.4008 380.164C85.4008 380.608 85.0648 380.932 84.6208 380.932C84.1768 380.932 83.8528 380.608 83.8528 380.164C83.8528 379.732 84.1768 379.408 84.6208 379.408ZM85.2808 388H83.9608V381.628H85.2808V388ZM89.0245 381.46C90.4885 381.46 91.3045 382.288 91.4485 383.452H90.1045C89.9725 382.78 89.5765 382.384 88.9285 382.384C88.3045 382.384 88.0045 382.732 88.0045 383.212C88.0045 383.788 88.4725 384.028 89.4205 384.28C90.8125 384.64 91.5445 385.192 91.5445 386.32C91.5445 387.556 90.4525 388.168 89.0605 388.168C87.6445 388.168 86.6005 387.532 86.4205 386.092H87.7525C87.9085 386.908 88.4485 387.232 89.1085 387.232C89.7205 387.232 90.2125 386.968 90.2125 386.416C90.2125 385.864 89.7805 385.564 88.7005 385.276C87.5365 384.976 86.6725 384.484 86.6725 383.368C86.6725 382.18 87.6085 381.46 89.0245 381.46ZM96.1476 381.46C97.9716 381.46 99.0156 382.84 99.0156 384.7C99.0156 387.04 97.5756 388.168 95.9316 388.168C95.4036 388.168 94.7436 388.024 94.4196 387.772L93.9996 387.136V388H92.6796V379.18H93.9996V382.624L94.4796 381.94C94.8396 381.64 95.4996 381.46 96.1476 381.46ZM95.7756 387.208C96.8316 387.208 97.6236 386.404 97.6236 384.82C97.6236 383.44 96.9876 382.42 95.8356 382.42C94.8516 382.42 93.9996 383.044 93.9996 384.748V385.072C93.9996 386.632 94.9356 387.208 95.7756 387.208ZM102.939 381.46C105.075 381.46 106.167 382.948 106.167 384.808C106.167 386.668 105.075 388.168 102.939 388.168C100.791 388.168 99.7113 386.668 99.7113 384.808C99.7113 382.948 100.791 381.46 102.939 381.46ZM102.939 387.208C104.091 387.208 104.763 386.248 104.763 384.808C104.763 383.368 104.091 382.42 102.939 382.42C101.775 382.42 101.103 383.368 101.103 384.808C101.103 386.248 101.775 387.208 102.939 387.208ZM112.956 383.284C112.98 383.608 112.992 383.896 112.992 384.412V388H111.672V384.556C111.672 384.256 111.672 383.98 111.648 383.656C111.588 382.936 111.204 382.432 110.304 382.432C109.392 382.432 108.648 383.152 108.648 385.144V388H107.328V381.628H108.648V382.684L109.08 381.952C109.584 381.568 110.052 381.46 110.688 381.46C112.056 381.46 112.836 382.168 112.956 383.284ZM115.697 386.704L114.569 389.452H113.417L114.365 386.584H115.697V386.704ZM124.019 379.768C125.315 379.936 126.203 380.764 126.203 382.228C126.203 383.692 125.219 384.532 124.019 384.688C123.635 384.736 123.335 384.736 122.891 384.736H121.499V388H120.179V379.72H122.891C123.335 379.72 123.635 379.72 124.019 379.768ZM123.767 383.62C124.343 383.512 124.811 383.104 124.811 382.228C124.811 381.352 124.343 380.944 123.767 380.836C123.551 380.8 123.263 380.788 122.927 380.788H121.499V383.668H122.927C123.263 383.668 123.551 383.656 123.767 383.62ZM129.939 381.46C132.075 381.46 133.167 382.948 133.167 384.808C133.167 386.668 132.075 388.168 129.939 388.168C127.791 388.168 126.711 386.668 126.711 384.808C126.711 382.948 127.791 381.46 129.939 381.46ZM129.939 387.208C131.091 387.208 131.763 386.248 131.763 384.808C131.763 383.368 131.091 382.42 129.939 382.42C128.775 382.42 128.103 383.368 128.103 384.808C128.103 386.248 128.775 387.208 129.939 387.208ZM137.172 381.472C137.352 381.472 137.484 381.496 137.616 381.544V382.576C136.404 382.492 135.648 383.116 135.648 384.688V388H134.328V381.628H135.648V382.708L136.188 381.832C136.476 381.604 136.848 381.472 137.172 381.472ZM140.13 382.6V385.936C140.13 386.152 140.13 386.296 140.142 386.464C140.19 387.088 140.43 387.22 141.294 387.136V388.048C140.958 388.096 140.646 388.12 140.322 388.12C139.326 388.12 138.894 387.748 138.834 386.908C138.822 386.692 138.822 386.416 138.822 386.056V382.6H137.922V381.676H138.822V380.152H140.13V381.676H141.378V382.6H140.13ZM148.134 381.628V388H146.826V386.908L146.382 387.7C145.878 388.06 145.41 388.168 144.774 388.168C143.454 388.168 142.686 387.424 142.542 386.548C142.494 386.224 142.482 385.936 142.482 385.42V381.628H143.79V385.156C143.79 385.36 143.802 385.708 143.838 386.032C143.934 386.728 144.39 387.184 145.206 387.184C146.13 387.184 146.826 386.476 146.826 384.628V381.628H148.134ZM155.676 381.628V386.416C155.676 386.812 155.676 387.304 155.664 387.652C155.592 389.584 154.392 390.556 152.472 390.556C150.636 390.556 149.664 389.788 149.532 388.42L149.52 388.3H150.816L150.828 388.408C150.912 389.092 151.5 389.56 152.484 389.56C153.636 389.56 154.296 388.936 154.344 387.796C154.356 387.52 154.356 387.292 154.356 387.064V386.932L153.876 387.628C153.516 387.916 152.892 388.108 152.244 388.108C150.408 388.108 149.34 386.764 149.34 384.892C149.34 382.564 150.78 381.46 152.424 381.46C152.952 381.46 153.612 381.604 153.936 381.856L154.356 382.492V381.628H155.676ZM152.508 387.148C153.504 387.148 154.356 386.524 154.356 384.82V384.544C154.356 382.996 153.42 382.42 152.568 382.42C151.524 382.42 150.732 383.188 150.732 384.772C150.732 386.152 151.368 387.148 152.508 387.148ZM161.039 388L160.919 387.076L160.595 387.76C160.163 388.06 159.611 388.168 159.011 388.168C157.883 388.168 156.959 387.52 156.959 386.332C156.959 384.916 158.087 384.148 160.499 384.148H160.907V383.992C160.907 383.752 160.907 383.536 160.883 383.296C160.847 382.78 160.523 382.42 159.767 382.42C158.999 382.42 158.603 382.852 158.531 383.644H157.211C157.295 382.252 158.339 381.46 159.791 381.46C161.435 381.46 162.083 382.156 162.191 383.236C162.215 383.5 162.227 383.836 162.227 384.136V386.38C162.227 386.86 162.251 387.292 162.347 388H161.039ZM159.491 387.208C160.319 387.208 160.907 386.644 160.907 385.612V385.024C159.359 384.904 158.351 385.252 158.351 386.224C158.351 386.896 158.795 387.208 159.491 387.208ZM165.178 379.18V386.056C165.178 386.272 165.178 386.464 165.19 386.656C165.214 387.016 165.382 387.136 165.946 387.088V388.012C165.682 388.048 165.382 388.072 165.082 388.072C164.386 388.072 163.918 387.82 163.87 387.004C163.858 386.764 163.858 386.476 163.858 386.092V379.18H165.178Z" fill="#747A83"/>
<path d="M298.588 363.804C298.588 365.172 297.508 366 296.08 366.144V367.08H295.264V366.156C293.704 366.036 292.684 365.184 292.6 363.72H293.944C294.04 364.5 294.52 365.004 295.264 365.148V362.364C293.812 361.932 292.912 361.308 292.912 359.928C292.912 358.512 293.944 357.72 295.264 357.576V356.64H296.08V357.564C297.592 357.708 298.372 358.692 298.528 359.952H297.184C297.1 359.22 296.776 358.704 296.08 358.56V361.176C297.904 361.752 298.588 362.508 298.588 363.804ZM294.232 359.76C294.232 360.468 294.568 360.804 295.264 361.032V358.56C294.628 358.668 294.232 359.076 294.232 359.76ZM296.08 362.532V365.16C296.788 365.064 297.244 364.68 297.244 363.924C297.244 363.312 296.968 362.844 296.08 362.532ZM304.391 357.72V366H303.071V359.1L300.731 360.444V359.148L302.555 358.032C302.939 357.804 303.287 357.72 303.659 357.72H304.391ZM309.102 364.944H312.906V366H307.134V365.328L310.026 362.412C311.07 361.38 311.526 360.78 311.526 359.988C311.526 359.184 311.07 358.548 310.17 358.548C309.222 358.548 308.754 359.148 308.646 360.24L308.634 360.36H307.314L307.326 360.24C307.494 358.488 308.562 357.54 310.314 357.54C312.066 357.54 312.954 358.56 312.954 359.868C312.954 360.96 312.378 361.728 310.926 363.144L309.102 364.944ZM317.233 357.552C319.189 357.552 320.281 358.74 320.281 361.524C320.281 364.74 318.805 366.168 316.981 366.168C315.445 366.168 314.437 365.28 314.305 363.888L314.293 363.768H315.661L315.685 363.888C315.865 364.74 316.309 365.16 317.077 365.16C318.109 365.16 318.805 364.284 318.889 362.052L318.445 362.796C318.001 363.156 317.545 363.3 316.945 363.3C315.181 363.3 314.209 362.124 314.209 360.54C314.209 358.704 315.541 357.552 317.233 357.552ZM317.245 362.292C318.097 362.292 318.817 361.644 318.817 360.408C318.817 359.352 318.193 358.56 317.245 358.56C316.285 358.56 315.637 359.316 315.637 360.384C315.637 361.44 316.129 362.292 317.245 362.292ZM322.748 364.704L321.62 367.452H320.468L321.416 364.584H322.748V364.704ZM327.217 357.552C329.533 357.552 330.313 359.352 330.313 361.86C330.313 364.344 329.533 366.168 327.217 366.168C324.913 366.168 324.121 364.344 324.121 361.86C324.121 359.352 324.913 357.552 327.217 357.552ZM327.217 365.16C328.405 365.16 328.885 363.984 328.885 361.86C328.885 359.712 328.405 358.56 327.217 358.56C326.041 358.56 325.549 359.712 325.549 361.86C325.549 363.984 326.041 365.16 327.217 365.16ZM334.424 357.552C336.74 357.552 337.52 359.352 337.52 361.86C337.52 364.344 336.74 366.168 334.424 366.168C332.12 366.168 331.328 364.344 331.328 361.86C331.328 359.352 332.12 357.552 334.424 357.552ZM334.424 365.16C335.612 365.16 336.092 363.984 336.092 361.86C336.092 359.712 335.612 358.56 334.424 358.56C333.248 358.56 332.756 359.712 332.756 361.86C332.756 363.984 333.248 365.16 334.424 365.16ZM348.052 357.72V362.796C348.052 363.096 348.052 363.336 348.028 363.648C347.908 365.028 346.96 366.168 344.8 366.168C342.64 366.168 341.692 365.028 341.584 363.648C341.56 363.336 341.56 363.096 341.56 362.796V357.72H342.868V362.82C342.868 363.072 342.868 363.3 342.892 363.492C342.976 364.488 343.612 365.16 344.8 365.16C346 365.16 346.636 364.488 346.72 363.492C346.744 363.3 346.744 363.072 346.744 362.82V357.72H348.052ZM352.593 357.552C354.429 357.552 355.329 358.632 355.497 360.072H354.129C354.033 359.124 353.481 358.56 352.521 358.56C351.741 358.56 351.129 358.92 351.129 359.7C351.129 360.504 351.621 360.876 352.905 361.176C354.729 361.596 355.593 362.376 355.593 363.756C355.593 365.256 354.261 366.168 352.653 366.168C350.757 366.168 349.545 365.268 349.377 363.6H350.745C350.961 364.62 351.681 365.16 352.653 365.16C353.517 365.16 354.201 364.692 354.201 363.936C354.201 363.072 353.697 362.628 352.353 362.316C350.781 361.944 349.737 361.356 349.737 359.916C349.737 358.452 351.045 357.552 352.593 357.552ZM360.81 357.768C362.73 357.996 364.146 359.256 364.146 361.764C364.146 364.236 362.682 365.712 360.762 365.952C360.342 366 360.15 366 359.706 366H357.078V357.72H359.754C360.198 357.72 360.39 357.72 360.81 357.768ZM360.534 364.896C361.866 364.704 362.73 363.6 362.73 361.764C362.73 360.024 361.902 359.016 360.582 358.824C360.318 358.776 360.03 358.764 359.634 358.764H358.398V364.944H359.586C359.994 364.944 360.27 364.944 360.534 364.896Z" fill="black"/>
<line x1="21" y1="405.5" x2="365" y2="405.5" stroke="#CAD4DB"/>
<path d="M25.98 437H24.276L21.384 428.72H22.812L25.152 435.992L27.552 428.72H28.956L25.98 437ZM30.3161 428.408C30.7601 428.408 31.0961 428.732 31.0961 429.164C31.0961 429.608 30.7601 429.932 30.3161 429.932C29.8721 429.932 29.5481 429.608 29.5481 429.164C29.5481 428.732 29.8721 428.408 30.3161 428.408ZM30.9761 437H29.6561V430.628H30.9761V437ZM38.1518 433.652C38.1518 433.772 38.1518 433.952 38.1278 434.18H33.5558C33.6638 435.704 34.3598 436.208 35.2238 436.208C35.9918 436.208 36.5918 435.74 36.7238 434.936H38.0558C37.7798 436.448 36.5678 437.168 35.1758 437.168C33.4718 437.168 32.1878 436.088 32.1878 433.832C32.1878 431.816 33.4718 430.46 35.3078 430.46C37.1558 430.46 38.1518 431.852 38.1518 433.652ZM35.2598 431.42C34.3598 431.42 33.7118 432.032 33.5678 433.256H36.7958C36.6998 432.08 36.1838 431.42 35.2598 431.42ZM48.2141 430.628L46.1861 437H44.6741L43.4141 431.852L42.1421 437H40.6181L38.5901 430.628H40.0781L41.3861 435.824L42.6221 430.64H44.2301L45.5021 435.836L46.8101 430.628H48.2141ZM55.2188 437L55.0988 436.076L54.7748 436.76C54.3428 437.06 53.7908 437.168 53.1908 437.168C52.0628 437.168 51.1388 436.52 51.1388 435.332C51.1388 433.916 52.2668 433.148 54.6788 433.148H55.0868V432.992C55.0868 432.752 55.0868 432.536 55.0628 432.296C55.0268 431.78 54.7028 431.42 53.9468 431.42C53.1788 431.42 52.7828 431.852 52.7108 432.644H51.3908C51.4748 431.252 52.5188 430.46 53.9708 430.46C55.6148 430.46 56.2628 431.156 56.3708 432.236C56.3948 432.5 56.4068 432.836 56.4068 433.136V435.38C56.4068 435.86 56.4308 436.292 56.5268 437H55.2188ZM53.6708 436.208C54.4988 436.208 55.0868 435.644 55.0868 434.612V434.024C53.5388 433.904 52.5308 434.252 52.5308 435.224C52.5308 435.896 52.9748 436.208 53.6708 436.208ZM59.3578 428.18V435.056C59.3578 435.272 59.3578 435.464 59.3698 435.656C59.3938 436.016 59.5618 436.136 60.1258 436.088V437.012C59.8618 437.048 59.5618 437.072 59.2618 437.072C58.5658 437.072 58.0978 436.82 58.0498 436.004C58.0378 435.764 58.0378 435.476 58.0378 435.092V428.18H59.3578ZM62.4984 428.18V435.056C62.4984 435.272 62.4984 435.464 62.5104 435.656C62.5344 436.016 62.7024 436.136 63.2664 436.088V437.012C63.0024 437.048 62.7024 437.072 62.4024 437.072C61.7064 437.072 61.2384 436.82 61.1904 436.004C61.1784 435.764 61.1784 435.476 61.1784 435.092V428.18H62.4984Z" fill="#038AFF"/>
<line x1="21" y1="440.5" x2="64" y2="440.5" stroke="#038AFF" stroke-dasharray="2 2"/>
<defs>
<clipPath id="clip0_401_150">
<rect width="32" height="20" fill="white" transform="translate(49 103)"/>
</clipPath>
</defs>
</svg>
