<svg width="48" height="48" viewBox="0 0 48 48" fill="none" xmlns="http://www.w3.org/2000/svg">
<rect x="0.5" y="0.5" width="47" height="47" rx="9.5" stroke="#727272"/>
<path d="M13.3333 13.3332V34.6665C13.3333 35.3737 13.6142 36.052 14.1143 36.5521C14.6144 37.0522 15.2927 37.3332 15.9999 37.3332H31.9999C32.7072 37.3332 33.3854 37.0522 33.8855 36.5521C34.3856 36.052 34.6666 35.3737 34.6666 34.6665V19.1225C34.6665 18.7672 34.5955 18.4156 34.4577 18.0882C34.3198 17.7607 34.118 17.4642 33.8639 17.2158L27.9439 11.4265C27.4457 10.9394 26.7767 10.6666 26.0799 10.6665H15.9999C15.2927 10.6665 14.6144 10.9475 14.1143 11.4476C13.6142 11.9476 13.3333 12.6259 13.3333 13.3332Z" stroke="black" stroke-width="2" stroke-linecap="round" stroke-linejoin="round"/>
<path d="M26.6665 10.6665V15.9998C26.6665 16.7071 26.9475 17.3854 27.4476 17.8855C27.9477 18.3856 28.6259 18.6665 29.3332 18.6665H34.6665" stroke="black" stroke-width="2" stroke-linejoin="round"/>
</svg>
