<svg width="81" height="27" viewBox="0 0 81 27" fill="none" xmlns="http://www.w3.org/2000/svg">
<g clip-path="url(#clip0_401_129)">
<path d="M20.0076 9.4196H10.5495V12.2211H17.2591C16.9357 16.1595 13.6618 17.8647 10.5495 17.8647C6.5884 17.8647 3.15278 14.7384 3.15278 10.3534C3.19319 6.09028 6.46715 2.84216 10.5899 2.84216C13.783 2.84216 15.6423 4.87223 15.6423 4.87223L17.6228 2.84216C17.6228 2.84216 15.1168 0.0406532 10.5091 0.0406532C4.60786 5.16474e-05 0.121338 4.95343 0.121338 10.3128C0.121338 15.5504 4.36535 20.6662 10.6303 20.6662C16.1273 20.6662 20.1692 16.8903 20.1692 11.2873C20.1692 10.1098 20.0076 9.4196 20.0076 9.4196Z" fill="white"/>
<path d="M27.7275 7.38953C23.8473 7.38953 21.0583 10.4346 21.0583 13.967C21.0583 17.5805 23.7664 20.6662 27.7679 20.6662C31.4057 20.6662 34.3563 17.8647 34.3563 14.0482C34.3563 9.62261 30.9206 7.38953 27.7275 7.38953ZM27.7679 9.98802C29.6676 9.98802 31.4865 11.5309 31.4865 14.0076C31.4865 16.4437 29.708 18.0271 27.7679 18.0271C25.6661 18.0271 24.0089 16.3219 24.0089 13.967C23.9685 11.6933 25.6257 9.98802 27.7679 9.98802Z" fill="white"/>
<path d="M42.1977 7.38953C38.3175 7.38953 35.5286 10.4346 35.5286 13.967C35.5286 17.5805 38.2366 20.6662 42.2381 20.6662C45.8759 20.6662 48.8265 17.8647 48.8265 14.0482C48.8265 9.62261 45.3908 7.38953 42.1977 7.38953ZM42.2381 9.98802C44.1378 9.98802 45.9567 11.5309 45.9567 14.0076C45.9567 16.4437 44.1783 18.0271 42.2381 18.0271C40.1363 18.0271 38.4792 16.3219 38.4792 13.967C38.4387 11.6933 40.0959 9.98802 42.2381 9.98802Z" fill="white"/>
<path d="M56.3846 7.38953C52.8277 7.38953 50.0388 10.5158 50.0388 14.0482C50.0388 18.0271 53.2723 20.7068 56.3442 20.7068C58.2439 20.7068 59.214 19.9354 59.9819 19.0828V20.382C59.9819 22.6557 58.6077 24.0361 56.5059 24.0361C54.4849 24.0361 53.4744 22.5339 53.1107 21.6813L50.5238 22.7369C51.4131 24.6452 53.2319 26.6346 56.4655 26.6346C59.9819 26.6346 62.69 24.4016 62.69 19.6918V7.79554H59.9011V8.93238C59.0927 7.99855 57.9206 7.38953 56.3846 7.38953ZM56.6271 9.98802C58.3652 9.98802 60.1436 11.4903 60.1436 14.0482C60.1436 16.6467 58.3652 18.0677 56.5867 18.0677C54.687 18.0677 52.9086 16.5249 52.9086 14.0482C52.949 11.4903 54.7679 9.98802 56.6271 9.98802Z" fill="white"/>
<path d="M75.0584 7.34888C71.7036 7.34888 68.8743 10.0286 68.8743 13.9669C68.8743 18.1489 72.027 20.6256 75.3818 20.6256C78.1707 20.6256 79.9087 19.0827 80.9192 17.7023L78.6153 16.1594C78.009 17.0932 77.0389 17.9865 75.3818 17.9865C73.5225 17.9865 72.6737 16.9714 72.1482 15.9564L81 12.2617L80.5554 11.1654C79.6662 9.13534 77.6856 7.34888 75.0584 7.34888ZM75.1392 9.90677C76.3518 9.90677 77.2006 10.5564 77.6048 11.3278L71.6632 13.8045C71.4207 11.8962 73.2395 9.90677 75.1392 9.90677Z" fill="white"/>
<path d="M64.6301 20.2601H67.5403V0.690186H64.6301V20.2601Z" fill="white"/>
</g>
<defs>
<clipPath id="clip0_401_129">
<rect width="81" height="27" fill="white"/>
</clipPath>
</defs>
</svg>
