<svg width="81" height="27" viewBox="0 0 81 27" fill="none" xmlns="http://www.w3.org/2000/svg">
<path d="M65.3981 9.1759C64.7514 8.44508 63.6601 8.03906 62.1646 8.03906H57.7184C57.3951 8.03906 57.1526 8.24207 57.1122 8.56688L55.2933 20.0571C55.2529 20.3007 55.4146 20.5037 55.6571 20.5037H57.961C58.1631 20.5037 58.3652 20.3413 58.4056 20.1383L58.931 16.8902C58.9714 16.606 59.2544 16.3624 59.5373 16.3624H60.952C63.9026 16.3624 65.6002 14.9413 66.0448 12.0992C66.1661 10.8406 65.964 9.86613 65.3981 9.1759ZM62.69 12.221C62.4475 13.8451 61.2349 13.8451 60.0223 13.8451H59.3352L59.8202 10.8406C59.8607 10.6782 60.0223 10.5158 60.184 10.5158H60.5074C61.3158 10.5158 62.0837 10.5158 62.4475 10.9624C62.69 11.2466 62.7708 11.6526 62.69 12.221Z" fill="white"/>
<path d="M75.503 12.1805H73.3608C73.1587 12.1805 73.0374 12.3023 72.997 12.5053L72.9162 13.1143L72.7545 12.9113C72.3099 12.2211 71.259 12.0181 70.2485 12.0181C67.9042 12.0181 65.8832 13.8045 65.4791 16.3218C65.277 17.5805 65.5599 18.7985 66.2874 19.6105C66.9341 20.382 67.8638 20.7068 68.9955 20.7068C70.8952 20.7068 71.9461 19.4887 71.9461 19.4887L71.8653 20.0978C71.8249 20.3414 71.9865 20.5444 72.2291 20.5444H74.1692C74.4925 20.5444 74.735 20.3008 74.7755 20.0166L75.9476 12.6677C75.9072 12.3835 75.7051 12.1805 75.503 12.1805ZM72.512 16.3624C72.3099 17.5805 71.3398 18.3925 70.0868 18.3925C69.4805 18.3925 68.9551 18.1895 68.6722 17.8241C68.3488 17.4587 68.2276 16.9308 68.3488 16.3218C68.5509 15.1038 69.521 14.2511 70.7335 14.2511C71.3398 14.2511 71.8249 14.4542 72.1482 14.8196C72.4716 15.2256 72.5928 15.7534 72.512 16.3624Z" fill="white"/>
<path d="M80.4343 8.03906H78.3729C78.1708 8.03906 78.0496 8.16087 78.0091 8.36387L76.1903 20.0571C76.1499 20.3007 76.3115 20.5037 76.554 20.5037H78.4133C78.7367 20.5037 78.9792 20.3007 79.0196 19.9759L80.8385 8.48568C80.8385 8.24207 80.6768 8.03906 80.4343 8.03906Z" fill="white"/>
<path d="M33.5884 9.1759C32.9417 8.44508 31.81 8.03906 30.3549 8.03906H25.8684C25.545 8.03906 25.3025 8.24207 25.2621 8.56688L23.4432 20.0571C23.4028 20.3007 23.5645 20.5037 23.807 20.5037H25.9492C26.2725 20.5037 26.5151 20.3007 26.5555 19.9759L27.0405 16.8902C27.0809 16.606 27.3639 16.3624 27.6468 16.3624H29.1019C32.0525 16.3624 33.7501 14.9413 34.1947 12.0992C34.3564 10.8406 34.1543 9.86613 33.5884 9.1759ZM30.8399 12.221C30.5974 13.8451 29.3848 13.8451 28.1722 13.8451H27.4851L27.9701 10.8406C28.0106 10.6782 28.1722 10.5158 28.3339 10.5158H28.6977C29.5061 10.5158 30.274 10.5158 30.6378 10.9624C30.8803 11.2466 30.9612 11.6526 30.8399 12.221Z" fill="white"/>
<path d="M43.6527 12.1805H41.5104C41.3084 12.1805 41.1871 12.3023 41.1467 12.5053L41.0658 13.1143L40.9042 12.9113C40.4595 12.2211 39.4087 12.0181 38.3982 12.0181C36.0539 12.0181 34.0329 13.8045 33.6287 16.3218C33.4266 17.5805 33.7095 18.7985 34.4371 19.6105C35.0838 20.382 36.0134 20.7068 37.1452 20.7068C39.0449 20.7068 40.0958 19.4887 40.0958 19.4887L40.0149 20.0978C39.9745 20.3414 40.1362 20.5444 40.3787 20.5444H42.3188C42.6422 20.5444 42.8847 20.3008 42.9251 20.0166L44.0569 12.5865C44.0569 12.3835 43.8952 12.1805 43.6527 12.1805ZM40.7021 16.3624C40.5 17.5805 39.5299 18.3925 38.2769 18.3925C37.6706 18.3925 37.1452 18.1895 36.8622 17.8241C36.5389 17.4587 36.4176 16.9308 36.5389 16.3218C36.741 15.1038 37.711 14.2511 38.9236 14.2511C39.5299 14.2511 40.0149 14.4542 40.3383 14.8196C40.6616 15.2256 40.7829 15.7534 40.7021 16.3624Z" fill="white"/>
<path d="M55.0508 12.1804H52.9086C52.7065 12.1804 52.5044 12.3022 52.3832 12.4646L49.4326 16.8496L48.1796 12.627C48.0987 12.3834 47.8562 12.1804 47.5733 12.1804H45.4715C45.229 12.1804 45.0269 12.424 45.1077 12.6676L47.452 19.6511L45.229 22.818C45.0673 23.0616 45.229 23.427 45.5523 23.427H47.6945C47.8966 23.427 48.0987 23.3458 48.22 23.1428L55.3742 12.7894C55.5358 12.5052 55.3338 12.1804 55.0508 12.1804Z" fill="white"/>
<path d="M16.0868 9.29777C15.8443 9.01356 15.5614 8.81055 15.1976 8.60754C15.1976 8.72935 15.1572 8.85115 15.1168 8.97296C15.0764 9.09476 15.0764 9.21657 15.0359 9.29777C14.3084 12.7489 12.1258 14.2106 9.29642 14.5354C9.09433 14.576 8.93265 14.576 8.73056 14.576C8.52846 14.576 8.28594 14.576 8.08385 14.576H6.30541C5.86079 14.576 5.49702 14.9008 5.4566 15.3068L4.64822 20.5038L4.52696 21.1534L4.28445 22.8181C4.24403 23.1023 4.44612 23.3459 4.72906 23.3459H7.92217C8.28594 23.3459 8.6093 23.0617 8.69014 22.6963L8.73056 22.5339L9.33684 18.7173L9.37726 18.5143C9.41768 18.1489 9.74103 17.8647 10.1452 17.8647H10.6303C13.6213 17.8647 16.0464 16.6466 16.7336 12.9925C17.0165 11.4496 16.8952 10.191 16.0868 9.29777Z" fill="white"/>
<path d="M5.41623 15.3473L5.45665 15.1443L6.46713 8.64806C6.50755 8.40445 6.66923 8.16085 6.91174 8.07964C6.99258 8.03904 7.11384 7.99844 7.2351 7.99844H12.045C12.6108 7.99844 13.1363 8.03904 13.6213 8.12024C13.7426 8.16085 13.9043 8.16085 14.0255 8.20145C14.1468 8.24205 14.268 8.28265 14.3893 8.28265C14.4297 8.28265 14.4701 8.32325 14.5105 8.32325H14.551C14.551 8.32325 14.551 8.32325 14.5914 8.32325C14.8339 8.40446 15.036 8.48566 15.2381 8.60746C15.4806 7.06461 15.2381 6.00897 14.3893 5.07513C13.4596 4.01949 11.8429 3.57288 9.74108 3.57288H3.59737C3.15276 3.57288 2.78899 3.89769 2.74857 4.3037L0.202161 20.5443C0.161742 20.8691 0.404257 21.1533 0.72761 21.1533H4.48659L4.60785 20.5037L5.41623 15.3473Z" fill="white"/>
<path d="M15.2381 8.60756C15.036 8.48575 14.8339 8.40455 14.5914 8.32335C14.5914 8.32335 14.5914 8.32335 14.551 8.32335H14.5106C14.4702 8.32335 14.4297 8.28275 14.3893 8.28275C14.2681 8.24214 14.1468 8.20154 14.0255 8.20154C13.9043 8.16094 13.7426 8.16094 13.6214 8.12034C13.1363 8.03914 12.6109 7.99854 12.045 7.99854H7.23512C7.11386 7.99854 6.99261 8.03914 6.91177 8.07974C6.70967 8.20154 6.50758 8.40455 6.46716 8.64816L5.45668 15.1444L5.41626 15.3474C5.4971 14.9008 5.86087 14.6166 6.26506 14.6166H8.08392C8.28602 14.6166 8.52854 14.6166 8.73063 14.6166C8.93273 14.6166 9.13482 14.576 9.2965 14.576C12.1258 14.2106 14.3085 12.7489 15.0764 9.33838C15.1169 9.21658 15.1169 9.13538 15.1573 9.01357C15.1977 8.85117 15.1977 8.72936 15.2381 8.60756C15.2381 8.64816 15.2381 8.64816 15.2381 8.60756Z" fill="white"/>
</svg>
