<svg width="130" height="43" viewBox="0 0 130 43" fill="none" xmlns="http://www.w3.org/2000/svg">
<g clip-path="url(#clip0_401_392)">
<path d="M68.3474 11.3807C68.3474 12.8032 67.1887 14.0318 65.7082 14.0318C64.2277 14.0318 63.069 12.8679 63.069 11.3807C63.069 9.89346 64.1633 8.72955 65.7082 8.72955C67.2531 8.85887 68.3474 10.0228 68.3474 11.3807ZM57.5974 16.6829C57.5974 16.9416 57.5974 17.3295 57.5974 17.3295C57.5974 17.3295 56.3744 15.713 53.7351 15.713C49.3579 15.713 45.9462 19.0754 45.9462 23.6664C45.9462 28.2574 49.2935 31.6198 53.7351 31.6198C56.4387 31.6198 57.5974 29.9386 57.5974 29.9386V30.6498C57.5974 30.9732 57.8549 31.2318 58.1768 31.2318H61.3953V16.101C61.3953 16.101 58.4342 16.101 58.1768 16.101C57.8549 16.101 57.5974 16.4243 57.5974 16.6829ZM57.5974 26.3822C57.0181 27.2874 55.795 28.0634 54.3789 28.0634C51.804 28.0634 49.8729 26.4468 49.8729 23.7311C49.8729 21.0153 51.8684 19.3987 54.3789 19.3987C55.795 19.3987 57.0824 20.1747 57.5974 21.0799V26.3822ZM63.8414 16.101H67.7037V31.2318H63.8414V16.101ZM121.325 15.713C118.686 15.713 117.463 17.3295 117.463 17.3295V8.85887H113.6V31.2965C113.6 31.2965 116.561 31.2965 116.819 31.2965C117.141 31.2965 117.398 31.0378 117.398 30.7145V30.0032C117.398 30.0032 118.621 31.6844 121.261 31.6844C125.638 31.6844 129.05 28.322 129.05 23.7311C129.114 19.0754 125.702 15.713 121.325 15.713ZM120.681 27.9987C119.201 27.9987 118.042 27.2228 117.463 26.3175V20.8859C118.042 20.11 119.329 19.2047 120.681 19.2047C123.256 19.2047 125.187 20.8213 125.187 23.5371C125.187 26.2529 123.256 27.9987 120.681 27.9987ZM111.605 22.3085V31.3611H107.743V22.7611C107.743 20.2393 106.97 19.2694 104.782 19.2694C103.623 19.2694 102.4 19.8514 101.627 20.7566V31.2965H97.7651V16.101H100.791C101.112 16.101 101.37 16.3596 101.37 16.6829V17.3295C102.464 16.1656 104.009 15.713 105.49 15.713C107.163 15.713 108.579 16.1656 109.674 17.1356C111.09 18.2995 111.605 19.722 111.605 22.3085ZM88.4313 15.713C85.792 15.713 84.569 17.3295 84.569 17.3295V8.85887H80.7067V31.2965C80.7067 31.2965 83.6678 31.2965 83.9253 31.2965C84.2471 31.2965 84.5046 31.0378 84.5046 30.7145V30.0032C84.5046 30.0032 85.7277 31.6844 88.3669 31.6844C92.7441 31.6844 96.1558 28.322 96.1558 23.7311C96.2202 19.0754 92.8085 15.713 88.4313 15.713ZM87.7875 27.9987C86.307 27.9987 85.1483 27.2228 84.569 26.3175V20.8859C85.1483 20.11 86.4357 19.2047 87.7875 19.2047C90.3624 19.2047 92.2935 20.8213 92.2935 23.5371C92.2935 26.2529 90.3624 27.9987 87.7875 27.9987ZM77.3594 15.713C78.5181 15.713 79.0974 15.907 79.0974 15.907V19.4634C79.0974 19.4634 75.8789 18.3641 73.8833 20.692V31.2965H70.0211V16.101C70.0211 16.101 72.9821 16.101 73.2396 16.101C73.5615 16.101 73.819 16.3596 73.819 16.6829V17.3295C74.5914 16.4889 76.2007 15.713 77.3594 15.713ZM37.3848 29.9386C37.1917 29.4859 36.9986 28.904 36.8055 28.516C36.4836 27.8047 36.1618 27.0935 35.9043 26.4468L35.8399 26.3822C33.072 20.3686 30.1109 14.2258 26.9567 8.14759L26.828 7.88895C26.5061 7.30699 26.1842 6.66037 25.8624 6.01376C25.4762 5.30248 25.0899 4.52654 24.4462 3.81526C23.1588 2.19872 21.292 1.29346 19.3609 1.29346C17.3654 1.29346 15.563 2.19872 14.2112 3.68594C13.5675 4.46188 13.1169 5.17316 12.7307 5.9491C12.4088 6.59571 12.0869 7.24233 11.7651 7.82428L11.6363 8.08293C8.54652 14.0965 5.52107 20.2393 2.75311 26.3175L2.68873 26.3822C2.43125 27.0288 2.10939 27.7401 1.78754 28.4514C1.59442 28.904 1.40131 29.3566 1.2082 29.8739C0.693226 31.3611 0.500112 32.7837 0.757597 34.2062C1.2082 37.2453 3.2037 39.7671 5.97167 40.8664C7.00161 41.319 8.09592 41.513 9.19023 41.513C9.51209 41.513 9.89832 41.4483 10.2202 41.4483C11.572 41.319 12.9238 40.8664 14.2112 40.0904C15.8848 39.1852 17.4298 37.8273 19.1678 35.8874C20.9058 37.8273 22.5151 39.1205 24.1244 40.0904C25.4762 40.8664 26.828 41.319 28.1154 41.4483C28.4372 41.513 28.8235 41.513 29.1453 41.513C30.2396 41.513 31.3983 41.319 32.3639 40.8664C35.1962 39.7671 37.1274 37.1807 37.578 34.2062C38.0286 32.7837 37.8998 31.4258 37.3848 29.9386ZM19.2965 32.0077C17.1079 29.292 15.7561 26.7055 15.2411 24.507C15.048 23.6017 14.9836 22.7611 15.1124 22.0498C15.1768 21.4032 15.4342 20.8213 15.7561 20.3686C16.5286 19.2694 17.816 18.6228 19.2965 18.6228C20.7771 18.6228 22.1289 19.2694 22.8369 20.3686C23.1588 20.8213 23.4163 21.4032 23.4807 22.0498C23.6094 22.7611 23.545 23.6017 23.3519 24.507C22.8369 26.6408 21.4208 29.2273 19.2965 32.0077ZM35.2606 33.8829C35.0031 35.9521 33.5869 37.7626 31.5914 38.6032C30.6259 38.9912 29.5959 39.1205 28.566 38.9912C27.536 38.8619 26.5705 38.5386 25.5405 37.9566C24.1244 37.1807 22.6438 35.8874 20.9702 34.0769C23.6094 30.8438 25.2187 27.8047 25.798 25.1536C26.0555 23.925 26.1199 22.7611 25.9911 21.7265C25.8624 20.692 25.4762 19.7867 24.8968 19.0107C23.6738 17.2002 21.5495 16.1656 19.2321 16.1656C16.9148 16.1656 14.7905 17.2649 13.5675 19.0107C12.9881 19.7867 12.6663 20.7566 12.4732 21.7265C12.3444 22.7611 12.3444 23.925 12.6663 25.1536C13.2456 27.8047 14.9193 30.8438 17.4941 34.0769C15.8205 35.9521 14.3399 37.1807 12.9238 37.9566C11.8938 38.5386 10.8639 38.8619 9.89832 38.9912C8.804 39.1205 7.77406 38.9265 6.87287 38.6032C4.87736 37.8273 3.52556 35.9521 3.2037 33.8829C3.07496 32.8483 3.13933 31.8784 3.58993 30.7145C3.71867 30.3265 3.91179 29.9386 4.1049 29.4213C4.36239 28.7747 4.68424 28.0634 5.0061 27.4168L5.07047 27.3521C7.83844 21.3386 10.7995 15.1957 13.8893 9.24684L14.0181 8.98819C14.3399 8.40624 14.6618 7.75962 14.9836 7.11301C15.3055 6.46639 15.6917 5.88443 16.078 5.36714C16.9148 4.39722 18.0735 3.87992 19.2965 3.87992C20.5196 3.87992 21.6783 4.39722 22.5151 5.36714C22.9657 5.88443 23.2875 6.46639 23.6094 7.11301C23.9313 7.69496 24.2531 8.34158 24.575 8.98819L24.7037 9.24684C27.7292 15.2604 30.6902 21.4032 33.4582 27.3521V27.4168C33.7801 28.0634 34.0375 28.7747 34.3594 29.4213C34.5525 29.8739 34.7456 30.3265 34.8744 30.7145C35.325 31.8138 35.4537 32.8483 35.2606 33.8829Z" fill="#FF5A5F"/>
</g>
<defs>
<clipPath id="clip0_401_392">
<rect width="129" height="43" fill="white" transform="translate(0.5)"/>
</clipPath>
</defs>
</svg>
