<svg width="130" height="45" viewBox="0 0 130 45" fill="none" xmlns="http://www.w3.org/2000/svg">
<path d="M104.96 15.5913C103.922 14.4236 102.171 13.7749 99.7703 13.7749H92.6346C92.1156 13.7749 91.7264 14.0993 91.6615 14.6182L88.7424 32.9765C88.6775 33.3657 88.937 33.6901 89.3262 33.6901H93.0238C93.3481 33.6901 93.6725 33.4306 93.7374 33.1062L94.5807 27.9166C94.6456 27.4625 95.0996 27.0733 95.5537 27.0733H97.8242C102.56 27.0733 105.284 24.8028 105.998 20.2619C106.192 18.251 105.868 16.6941 104.96 15.5913ZM100.614 20.4565C100.224 23.0514 98.2783 23.0513 96.3322 23.0513H95.2294L96.0078 18.251C96.0727 17.9915 96.3322 17.732 96.5917 17.732H97.1106C98.408 17.732 99.6406 17.732 100.224 18.4456C100.614 18.8997 100.743 19.5484 100.614 20.4565Z" fill="#179BD7"/>
<path d="M121.178 20.3918H117.739C117.415 20.3918 117.22 20.5864 117.156 20.9108L117.026 21.8838L116.766 21.5595C116.053 20.4567 114.366 20.1323 112.744 20.1323C108.982 20.1323 105.738 22.9866 105.09 27.0086C104.765 29.0196 105.219 30.9657 106.387 32.2631C107.425 33.4956 108.917 34.0146 110.733 34.0146C113.782 34.0146 115.469 32.0685 115.469 32.0685L115.339 33.0415C115.274 33.4307 115.534 33.7551 115.923 33.7551H119.037C119.556 33.7551 119.945 33.3659 120.01 32.9118L121.891 21.1702C121.826 20.7162 121.502 20.3918 121.178 20.3918ZM116.377 27.0734C116.053 29.0195 114.496 30.317 112.485 30.317C111.512 30.317 110.669 29.9926 110.214 29.4088C109.696 28.8249 109.501 27.9816 109.696 27.0086C110.02 25.0625 111.577 23.7002 113.523 23.7002C114.496 23.7002 115.274 24.0245 115.793 24.6084C116.312 25.2571 116.507 26.1004 116.377 27.0734Z" fill="#179BD7"/>
<path d="M129.092 13.7749H125.783C125.459 13.7749 125.264 13.9695 125.2 14.2939L122.28 32.9765C122.216 33.3657 122.475 33.6901 122.864 33.6901H125.848C126.367 33.6901 126.756 33.3657 126.821 32.8468L129.741 14.4885C129.741 14.0993 129.481 13.7749 129.092 13.7749Z" fill="#179BD7"/>
<path d="M53.9071 15.5913C52.8692 14.4236 51.0528 13.7749 48.7175 13.7749H41.5169C40.9979 13.7749 40.6087 14.0993 40.5438 14.6182L37.6247 32.9765C37.5598 33.3657 37.8193 33.6901 38.2085 33.6901H41.6466C42.1656 33.6901 42.5548 33.3657 42.6197 32.8468L43.3981 27.9166C43.463 27.4625 43.9171 27.0733 44.3712 27.0733H46.7065C51.442 27.0733 54.1666 24.8028 54.8802 20.2619C55.1397 18.251 54.8153 16.6941 53.9071 15.5913ZM49.4959 20.4565C49.1067 23.0514 47.1606 23.0513 45.2145 23.0513H44.1117L44.8901 18.251C44.955 17.9915 45.2145 17.732 45.474 17.732H46.0578C47.3552 17.732 48.5878 17.732 49.1716 18.4456C49.5608 18.8997 49.6906 19.5484 49.4959 20.4565Z" fill="#253B80"/>
<path d="M70.0599 20.3918H66.6218C66.2974 20.3918 66.1028 20.5864 66.0379 20.9108L65.9082 21.8838L65.6487 21.5595C64.9351 20.4567 63.2485 20.1323 61.6268 20.1323C57.8643 20.1323 54.6208 22.9866 53.9721 27.0086C53.6477 29.0196 54.1018 30.9657 55.2695 32.2631C56.3074 33.4956 57.7994 34.0146 59.6158 34.0146C62.6647 34.0146 64.3513 32.0685 64.3513 32.0685L64.2216 33.0415C64.1567 33.4307 64.4162 33.7551 64.8054 33.7551H67.9192C68.4381 33.7551 68.8274 33.3659 68.8922 32.9118L70.7086 21.0405C70.7086 20.7162 70.4491 20.3918 70.0599 20.3918ZM65.3244 27.0734C65 29.0195 63.4431 30.317 61.4322 30.317C60.4591 30.317 59.6158 29.9926 59.1617 29.4088C58.6427 28.8249 58.4481 27.9816 58.6427 27.0086C58.9671 25.0625 60.524 23.7002 62.4701 23.7002C63.4431 23.7002 64.2216 24.0245 64.7405 24.6084C65.2595 25.2571 65.4541 26.1004 65.3244 27.0734Z" fill="#253B80"/>
<path d="M88.3533 20.3916H84.9152C84.5909 20.3916 84.2665 20.5862 84.0719 20.8457L79.3364 27.8517L77.3254 21.1052C77.1957 20.716 76.8064 20.3916 76.3524 20.3916H72.9791C72.5899 20.3916 72.2655 20.7808 72.3953 21.17L76.1577 32.3277L72.5899 37.3876C72.3304 37.7768 72.5899 38.3607 73.1088 38.3607H76.547C76.8713 38.3607 77.1957 38.2309 77.3903 37.9066L88.8723 21.3647C89.1318 20.9106 88.8074 20.3916 88.3533 20.3916Z" fill="#253B80"/>
<path d="M25.8185 15.7859C25.4293 15.3318 24.9752 15.0075 24.3914 14.6831C24.3914 14.8777 24.3265 15.0723 24.2617 15.2669C24.1968 15.4615 24.1968 15.6562 24.1319 15.7859C22.9643 21.2999 19.4613 23.6352 14.9203 24.1542C14.596 24.219 14.3365 24.219 14.0122 24.219C13.6878 24.219 13.2986 24.219 12.9742 24.219H10.1199C9.40637 24.219 8.82254 24.738 8.75767 25.3867L7.46026 33.6901L7.26565 34.728L6.87643 37.3877C6.81156 37.8418 7.13591 38.231 7.59 38.231H12.7148C13.2986 38.231 13.8175 37.7769 13.9473 37.1931L14.0122 36.9336L14.9852 30.8358L15.0501 30.5114C15.115 29.9276 15.6339 29.4735 16.2826 29.4735H17.0611C21.8615 29.4735 25.7537 27.5274 26.8565 21.6891C27.3106 19.224 27.1159 17.213 25.8185 15.7859Z" fill="#179BD7"/>
<path d="M8.69272 25.4515L8.75759 25.1272L10.3793 14.7479C10.4442 14.3587 10.7037 13.9695 11.0929 13.8398C11.2227 13.7749 11.4173 13.71 11.6119 13.71H19.3314C20.2396 13.71 21.0829 13.7749 21.8614 13.9046C22.056 13.9695 22.3155 13.9695 22.5101 14.0344C22.7047 14.0992 22.8993 14.1641 23.0939 14.1641C23.1588 14.1641 23.2237 14.229 23.2885 14.229H23.3534C23.3534 14.229 23.3534 14.229 23.4183 14.229C23.8075 14.3587 24.1318 14.4885 24.4562 14.6831C24.8454 12.218 24.4562 10.5314 23.0939 9.03936C21.6019 7.35273 19.0071 6.63916 15.6338 6.63916H5.77356C5.05999 6.63916 4.47615 7.15812 4.41128 7.80683L0.324456 33.7549C0.259586 34.2739 0.648807 34.728 1.16777 34.728H7.2007L7.39531 33.6901L8.69272 25.4515Z" fill="#253B80"/>
<path d="M24.4559 14.683C24.1315 14.4884 23.8072 14.3587 23.4179 14.2289C23.4179 14.2289 23.4179 14.2289 23.3531 14.2289H23.2882C23.2233 14.2289 23.1585 14.1641 23.0936 14.1641C22.899 14.0992 22.7044 14.0343 22.5097 14.0343C22.3151 13.9694 22.0557 13.9694 21.861 13.9046C21.0826 13.7748 20.2393 13.71 19.3311 13.71H11.6115C11.4169 13.71 11.2223 13.7748 11.0926 13.8397C10.7682 14.0343 10.4439 14.3587 10.379 14.7479L8.75725 25.1271L8.69238 25.4515C8.82212 24.7379 9.40596 24.2838 10.0547 24.2838H12.9738C13.2982 24.2838 13.6874 24.2838 14.0117 24.2838C14.3361 24.2838 14.6604 24.2189 14.9199 24.2189C19.4608 23.6351 22.9638 21.2998 24.1964 15.8507C24.2612 15.6561 24.2612 15.5263 24.3261 15.3317C24.391 15.0722 24.391 14.8776 24.4559 14.683C24.4559 14.7479 24.4559 14.7479 24.4559 14.683Z" fill="#222D65"/>
</svg>
